<?xml version="1.0" encoding="UTF-8"?>
<svg version="1.1" viewBox="0 0 188 67" xmlns="http://www.w3.org/2000/svg" xmlns:xlink="http://www.w3.org/1999/xlink">
<title>!UI Kit / Logos / BCBSMA</title>
<desc>Created with Sketch.</desc>
<defs>
<polygon id="a" points="0.083739 0.2404 34.42 0.2404 34.42 39.855 0.083739 39.855"/>
</defs>
<g transform="translate(-235 -652)" fill="none" fill-rule="evenodd">
<g transform="translate(235 632)">
<g transform="translate(0 20)">
<polygon points="9.9228 54.258 7.0715 62.685 7.037 62.685 4.4129 54.258 7.9325e-5 54.258 7.9325e-5 65.85 2.5194 65.85 2.5194 55.929 2.5532 55.895 5.8737 65.85 8.1146 65.85 11.624 55.895 11.659 55.929 11.659 65.85 14.179 65.85 14.179 54.258" fill="#A4A4A6"/>
<path d="m22.82 54.258l-4.5362 11.592h2.5725l0.93802-2.455h4.9705l0.90351 2.455h2.7101l-4.3609-11.592h-3.1976zm1.5107 2.2644h0.036489l1.7182 4.944h-3.5954l1.8407-4.944z" fill="#A4A4A6"/>
<g transform="translate(33.713 .12606)">
<path d="m7.4787 57.44c-0.10352-1.1712-0.78254-1.7525-2.0855-1.7525-0.99037 0-1.9982 0.48484-1.9982 1.4941 0 1.2522 1.2164 1.3995 2.2933 1.6378 1.9113 0.44929 4.7274 0.94879 4.7274 3.2766 0 2.872-2.7105 3.8685-5.4044 3.8685-2.8672 0-4.9003-1.0283-4.8138-3.9505h2.745c-0.10233 1.2852 0.69568 2.1519 2.1033 2.1519 1.0776 0 2.5019-0.3038 2.5019-1.5388 0-1.3658-1.7896-1.4611-2.8672-1.7187-1.7547-0.40275-4.1535-1.1401-4.1535-3.1956 0-2.6499 2.6427-3.8223 5.2144-3.8223 2.4321 0 4.3256 1.2214 4.3256 3.5496h-2.5884" fill="#A4A4A6"/>
<path d="m21.767 57.44c-0.10312-1.1712-0.78135-1.7525-2.0835-1.7525-0.99116 0-1.999 0.48484-1.999 1.4941 0 1.2522 1.2172 1.3995 2.2933 1.6378 1.9101 0.44929 4.727 0.94879 4.727 3.2766 0 2.872-2.7113 3.8685-5.4032 3.8685-2.868 0-4.9003-1.0283-4.8146-3.9505h2.7446c-0.10312 1.2852 0.69687 2.1519 2.1033 2.1519 1.0768 0 2.5031-0.3038 2.5031-1.5388 0-1.3658-1.7896-1.4611-2.868-1.7187-1.7551-0.40275-4.1527-1.1401-4.1527-3.1956 0-2.6499 2.6407-3.8223 5.2124-3.8223 2.4341 0 4.3276 1.2214 4.3276 3.5496h-2.5904" fill="#A4A4A6"/>
<path d="m36.194 61.34l-1.7194-4.9444h-0.035696l-1.8411 4.9444h3.5962zm-7.802 4.383l4.5354-11.592h3.1988l4.3589 11.592h-2.7085l-0.90549-2.455h-4.9681l-0.93921 2.455h-2.5717z" fill="#A4A4A6"/>
<path d="m51.664 57.89c0.019831-1.2222-0.78135-2.2025-2.3976-2.2025-1.9113 0-2.3976 2.6181-2.3976 4.2397 0 1.6213 0.48626 4.2375 2.3976 4.2375 1.6162 0 2.4174-0.97847 2.3976-2.197h2.868c-0.12216 2.9065-2.3809 3.9967-5.2656 3.9967-3.6315 0-5.2656-2.6499-5.2656-6.0372 0-3.3865 1.6341-6.0369 5.2656-6.0369 2.8846 0 5.1434 1.0906 5.2656 3.9996h-2.868" fill="#A4A4A6"/>
<polygon points="58.899 65.723 58.899 54.132 61.591 54.132 61.591 58.709 66.336 58.709 66.336 54.132 69.064 54.132 69.064 65.723 66.372 65.723 66.372 60.634 61.591 60.634 61.591 65.723" fill="#A4A4A6"/>
<path d="m85.139 54.132v7.2568c0 3.082-2.3944 4.5761-5.4377 4.5761-3.0401 0-5.4377-1.4941-5.4377-4.5761v-7.2568h2.6947v6.293c0 1.9588 0.1055 3.7402 2.7431 3.7402 2.6407 0 2.749-1.7814 2.749-3.7402v-6.293h2.6887" fill="#A4A4A6"/>
<path d="m97.048 57.44c-0.10233-1.1712-0.77857-1.7525-2.0835-1.7525-0.99037 0-1.999 0.48484-1.999 1.4941 0 1.2522 1.2184 1.3995 2.2961 1.6378 1.9113 0.44929 4.7254 0.94879 4.7254 3.2766 0 2.872-2.7125 3.8685-5.4044 3.8685-2.8672 0-4.9003-1.0283-4.8126-3.9505h2.7427c-0.10114 1.2852 0.69687 2.1519 2.1033 2.1519 1.0788 0 2.5031-0.3038 2.5031-1.5388 0-1.3658-1.7896-1.4611-2.868-1.7187-1.7519-0.40275-4.1527-1.1401-4.1527-3.1956 0-2.6499 2.6419-3.8223 5.2144-3.8223 2.4321 0 4.3268 1.2214 4.3268 3.5496h-2.5915" fill="#A4A4A6"/>
<polygon points="104.46 54.132 112.87 54.132 112.87 56.058 107.15 56.058 107.15 58.771 112.5 58.771 112.5 60.699 107.15 60.699 107.15 63.796 113.06 63.796 113.06 65.723 104.46 65.723" fill="#A4A4A6"/>
<polygon points="116.99 54.132 127.16 54.132 127.16 56.058 123.42 56.058 123.42 65.723 120.73 65.723 120.73 56.058 116.99 56.058" fill="#A4A4A6"/>
<polygon points="130.31 54.132 140.47 54.132 140.47 56.058 136.73 56.058 136.73 65.723 134.04 65.723 134.04 56.058 130.31 56.058" fill="#A4A4A6"/>
<path d="m151.29 57.44c-0.10431-1.1712-0.78452-1.7525-2.0866-1.7525-0.99116 0-1.9978 0.48484-1.9978 1.4941 0 1.2522 1.2164 1.3995 2.2921 1.6378 1.9105 0.44929 4.7282 0.94879 4.7282 3.2766 0 2.872-2.7125 3.8685-5.4052 3.8685-2.8672 0-4.8995-1.0283-4.8118-3.9505h2.7458c-0.10828 1.2852 0.69409 2.1519 2.1013 2.1519 1.0776 0 2.5019-0.3038 2.5019-1.5388 0-1.3658-1.7892-1.4611-2.8668-1.7187-1.7559-0.40275-4.1535-1.1401-4.1535-3.1956 0-2.6499 2.6407-3.8223 5.2144-3.8223 2.4309 0 4.3256 1.2214 4.3256 3.5496h-2.5876" fill="#A4A4A6"/>
<path d="m80.19 38.24c7.2527-3.6977 11.649-9.9834 13.908-16.449 2.352-6.7093 2.5273-14.646-0.19197-19.592-4.1396 1.928-8.8717 2.4982-13.716 2.511-4.8384 0.013559-9.5686-0.58305-13.707-2.511-2.7216 4.9462-2.5455 12.883-0.19514 19.592 2.2647 6.4656 6.6522 12.751 13.902 16.449" fill="#fff"/>
<polygon points="44.705 38.34 44.705 27.727 56.198 27.727 56.198 12.226 44.705 12.226 44.705 1.609 27.984 1.609 27.984 12.226 16.496 12.226 16.496 27.727 27.984 27.727 27.984 38.34" fill="#fff"/>
<path d="m49.682 37.535c0.31413 0 0.59454-0.020889 0.59454-0.36903 0-0.28035-0.27764-0.33019-0.53465-0.33019h-0.49895v0.69922h0.43906zm-0.43906 1.2577h-0.36807v-2.2472h0.92334c0.57749 0 0.8583 0.19643 0.8583 0.64315 0 0.40092-0.27288 0.57352-0.62905 0.61274l0.6937 0.9913h-0.41606l-0.63976-0.97298h-0.42241v0.97298zm0.44501 0.5028c0.95349 0 1.7067-0.69373 1.7067-1.6304 0-0.92314-0.75319-1.6187-1.7067-1.6187-0.96538 0-1.7154 0.69556-1.7154 1.6187 0 0.9367 0.75002 1.6304 1.7154 1.6304zm-2.1426-1.6304c0-1.1196 0.98204-1.9434 2.1426-1.9434 1.1466 0 2.1259 0.82382 2.1259 1.9434 0 1.1276-0.97927 1.954-2.1259 1.954-1.1605 0-2.1426-0.82639-2.1426-1.954z" fill="#3A73B6"/>
<path d="m89.551 37.535c0.31095 0 0.58859-0.020889 0.58859-0.36903 0-0.28035-0.27764-0.33019-0.53544-0.33019h-0.49697v0.69922h0.44382zm-0.44382 1.2577h-0.36807v-2.2472h0.9281c0.57154 0 0.85433 0.19643 0.85433 0.64315 0 0.40092-0.27684 0.57352-0.62905 0.61274l0.6937 0.9913h-0.41209l-0.64293-0.97298h-0.42399v0.97298zm0.44382 0.5028c0.95666 0 1.7067-0.69373 1.7067-1.6304 0-0.92314-0.75002-1.6187-1.7067-1.6187-0.96261 0-1.7146 0.69556-1.7146 1.6187 0 0.9367 0.752 1.6304 1.7146 1.6304zm-2.1438-1.6304c0-1.1196 0.98244-1.9434 2.1438-1.9434 1.1526 0 2.1319 0.82382 2.1319 1.9434 0 1.1276-0.97927 1.954-2.1319 1.954-1.1613 0-2.1438-0.82639-2.1438-1.954z" fill="#3A73B6"/>
<polygon points="45.639 39.434 45.639 28.66 57.3 28.66 57.3 11.436 45.639 11.436 45.639 0.66148 27.063 0.66148 27.063 11.436 15.401 11.436 15.401 28.66 27.063 28.66 27.063 39.434" fill="#1D75BC"/>
<g transform="translate(63.063)">
<mask id="b" fill="white">
<use xlink:href="#a"/>
</mask>
<path d="m17.253 39.855c8.0539-4.1166 12.937-10.662 15.451-17.849 2.6098-7.4518 2.1739-16.273-0.84957-21.765-4.6001 2.1398-9.2251 3.2158-14.602 3.2282-5.3786 0.015392-10.004-1.0884-14.604-3.2282-3.0306 5.4926-3.4566 14.314-0.84957 21.765 2.5158 7.1876 7.4026 13.733 15.453 17.849" fill="#1D75BC" mask="url(#b)"/>
</g>
<path d="m91.91 18.72c-2.0283 7.7736-7.1131 13.685-11.593 16.29 0.0019832 7.33e-4 0.0039663 0.0025653 0.0059494 0.0032983h-0.011106c0.0019831-7.33e-4 0.0039663-0.0025653 0.0039663-0.0025653-4.4811-2.6052-9.5594-8.5171-11.59-16.291-1.0788-4.1305-1.3803-8.7674 0.027367-12.445 2.0037 0.494 3.8746 0.90225 5.8177 1.1459 1.9359 0.24004 3.8492 0.41558 5.738 0.42547h0.017848c1.8848-0.0098947 3.7981-0.18543 5.7376-0.42547 1.9383-0.2437 3.8131-0.65195 5.8228-1.1459 1.4044 3.6775 1.1014 8.3145 0.022608 12.445m1.1121-14.365c-3.315 1.054-5.2549 1.3776-7.0579 1.637-1.6809 0.2426-3.175 0.39249-5.6372 0.42071h-0.017848c-2.4607-0.028218-3.9575-0.1781-5.6416-0.42071-1.8011-0.25946-3.7429-0.58305-7.0548-1.637-2.2088 4.977-1.7186 11.354 0.29231 16.8 2.2588 6.134 5.7879 11.567 12.413 15.359 6.6209-3.7922 10.151-9.2248 12.41-15.359 2.0129-5.4461 2.5019-11.823 0.2943-16.8m-12.695 32.164l-0.0059493-0.0036647c-0.0059494 0-0.0091224 0.0018324-0.011899 0.0036647h0.017848" fill="#fff"/>
<path d="m81.608 21.038l0.013882-3.4082s-0.46841-0.090884-1.1292-0.1312c-0.86583-0.051672-1.2565-0.04361-1.2565-0.04361l-0.0039663 0.29024s-0.41368 0.16015-0.47754 0.26349c-0.031333 0.052772-0.13961 0.17847-0.087654 0.3038 0.33951 0.84508 0.80911 1.6616 0.94198 2.5609 0.6457 0.08099 1.2157 0.068163 1.999 0.16454" fill="#fff"/>
<path d="m77.192 20.52c-0.14953 1.3413 0.79523 2.0563 1.8364 2.289 0.82498 0.17994 1.6289 0.21915 2.492 0.31626 0.10154 0.0058635 0.33673 0.010261 0.50887 0.083922 0.15587 0.059734 0.23044 0.14366 0.2582 0.22978 0.043232 0.12277 0.025384 0.22208-0.06227 0.32213-0.089637 0.10738-0.33951 0.16748-0.33951 0.16748l-0.047992 1.6084s0.69965-0.026386 1.2684-0.34008c0.53465-0.30087 0.87218-0.68273 0.98997-1.1584 0.13604-0.5574 0.043629-1.0987-0.38155-1.6352-0.27962-0.35804-0.76985-0.61457-1.2676-0.77655-1.0288-0.33275-2.1378-0.28291-3.2027-0.42107-0.16143-0.024554-0.31294-0.13926-0.32484-0.27302-0.031333-0.2481 0.2233-0.36537 0.2233-0.36537s-0.1297-0.38186-0.26376-0.75309c-0.12097-0.28255-0.29112-0.67834-0.41527-0.88942-0.72424 0.29024-1.1899 0.90958-1.2716 1.5952" fill="#fff"/>
<path d="m81.52 23.497l-0.028557 2.8819-0.78452-0.32652-0.77262-0.29537-0.013485-2.4147c0.69092 0.079157 1.0078 0.086487 1.5992 0.15465" fill="#fff"/>
<path d="m78.021 25.09c-0.42518 0.92863 0.10749 1.8415 0.96261 2.2362 0.44501 0.19936 1.0304 0.3793 1.504 0.5519 0.47119 0.16711 1.2982 0.63839 1.3628 0.86853 0.040456 0.14366-0.13485 0.27998-0.13485 0.27998l-0.023401 1.1269s0.50689-0.10188 0.88685-0.38919c0.34744-0.26642 0.6112-0.6175 0.60525-1.1797-0.0019831-0.62007-0.31294-1.0957-1.2629-1.6139-0.73812-0.39762-1.6329-0.71938-2.3246-1.0023-0.09757-0.041778-0.19197-0.21915-0.14953-0.33715 0.040059-0.11764 0.11581-0.16198 0.11581-0.16198l-0.009519-1.3024s-0.53663 0.099313-0.79047 0.23307c-0.2352 0.12973-0.58066 0.34558-0.74208 0.69006" fill="#fff"/>
<path d="m81.396 28.924c0.0039662-0.094549-0.034506-0.10738-0.074962-0.16748-0.21457-0.20449-0.51165-0.34521-0.58542-0.37893-0.21576-0.12313-0.70163-0.28585-0.70163-0.28585s0.036093 2.9501 0.093207 4.4753c0.017055 0.34815 0.22052 0.4372 0.57986 0.46102 0.44581 0.018323 0.57193-0.23307 0.57788-0.38479 0.019435-0.48924 0.084481-2.6082 0.11105-3.7193" fill="#fff"/>
<path d="m81.727 9.9238c0.16143 0.10994 0.16143 0.11544 0.2118 0.33202 0.10828 0.47384-0.0071393 1.2112 0.09043 1.5384 0.053941 0.10188 0.16738 0.099313 0.25582 0.057536 0.70758-0.35108 1.1879-0.95942 1.9026-1.2449 0.33634-0.1312 1.2716 0.30087 1.0558 0.94952-0.10233 0.3027-0.25186 0.34998-0.45374 0.54641-0.41606 0.40018-1.0106 0.77655-1.5222 1.3002-0.34863 0.35034-0.77262 0.60138-1.0423 1.0041-0.078928 0.12533-0.2237 0.29831-0.2237 0.29831-0.99394-0.18543-1.993-0.15208-2.7696-0.30087l-0.0015865-1.065s0.79008-0.12203 0.93484-0.48411c0.012692-0.028218-0.0087257-0.14805-0.11899-0.22978-0.13684-0.090884-0.37124-0.18837-0.43906-0.21475 0.78928 0.12093 1.2823 0.24114 2.0462 0.54641 0.057114-0.075493 0.022608-0.24993-0.037283-0.30527-0.10352-0.1147-0.15746-0.15208-0.42915-0.21182-0.4704-0.10738-1.7392-0.25396-1.7392-0.25396s0.58938-0.0025653 1.0788-0.078424c0.24392-0.037014 0.43867-0.076226 0.493-0.15172 0.053148-0.11251-0.045215-0.28548-0.22052-0.45002-0.10709-0.1147-0.23837-0.22721-0.3288-0.34302-0.11621-0.14622-0.30897-0.41264-0.51482-0.58269-0.1761-0.14915-0.63182-0.35841-0.63182-0.35841s-0.070599-0.57572 0.051165-0.80293c0.096776-0.17297 0.33475-0.26899 0.46167-0.21438 0.56598 0.29537 1.1288 0.59918 1.8907 0.71901" fill="#fff"/>
<path d="m79.363 11.009c-0.039266-0.026386-0.11899 0.0025653-0.13763 0.012826-0.15468 0.10005-0.25225 0.1935-0.41368 0.21988-0.3288 0.047275-0.28319-0.21182-0.50768-0.35804-0.13287-0.091984-0.26376 0.023454-0.3879-0.18287 0.47635 0.0098947 1.0935-0.031883 1.4469 0.3082m5.5488 6.2956c-0.14556-0.70106-0.73891-1.4175-1.4211-1.7396-1.7638-0.83665-3.6997-0.47568-5.5036-1.0166-0.60723-0.18104-1.4576-0.46102-1.625-1.0913-0.065046-0.2536 0-0.75859 0.27565-0.84471 0.4577-0.13083 0.96142 0.22465 1.6238 0.36354 0.41923 0.091984 0.83093 0.089052 1.1585-0.0025653 0.14675-0.041778 0.36212-0.093816 0.37997-0.17004-0.017848-0.069996-0.18522-0.12826-0.2697-0.17004-0.19792-0.099313-0.41328-0.14109-0.63698-0.22208-0.36014-0.12643-0.72225-0.28804-1.0935-0.47641 0.34665-0.068163 0.92929-0.08099 1.2708-0.047275 0.28041 0.031883 1.1339 0.020889 1.3846-0.038846 0.057114-0.012826 0.188-0.057536 0.12811-0.14659-0.099553-0.15465-0.26296-0.20925-0.376-0.35291-0.25186-0.3137-0.46762-0.63582-0.86702-0.77655-1.1574-0.41374-2.4515-0.51562-3.6033 0.03628-1.5147 0.72671-2.039 2.44-1.362 3.8212 0.59137 1.1987 1.7586 1.9881 3.1139 2.3619 0.67902 0.1891 1.3624 0.23271 2.0648 0.26716 0.86028 0.039212 1.6389 0.060101 2.4615 0.25909 0.18126 0.03628 0.36846 0.13303 0.45889 0.29024 0.22052 0.38479 0.022608 0.80293-0.41051 0.91837-0.010709 0.66954-0.072979 2.009-0.072979 2.009s3.5177-0.31187 2.9211-3.2312" fill="#fff"/>
<path d="m36.382 29.241c-1.435 0-2.801-0.27998-4.0345-0.79304l3.8742-5.4747c0.045215-0.057902 0.10233-0.084288 0.16103-0.081723 0.060287-0.0025653 0.1174 0.02382 0.16143 0.081723l3.875 5.4747c-1.2343 0.51306-2.5995 0.79304-4.0372 0.79304zm-0.7167-8.0198l-5.6106 7.7486c1.8146 1.106 3.99 1.7517 6.3274 1.7517 2.3405 0 4.5128-0.64572 6.3293-1.7517l-5.6106-7.7486c-0.39107-0.50206-1.0217-0.53908-1.4354 0zm11.5-4.896v0.0018324h0.0019831l-0.0019831-0.0018324zm-7.355 2.4898c-0.09638-0.21915-0.065046-0.38736 0.35736-0.41851l5.851-0.4973c0.18602 0.70106 0.28359 1.4285 0.28359 2.179 0 2.278-0.90073 4.3632-2.3956 5.9661l-4.0963-7.2293zm8.0911 1.2632c0-1.3197-0.25781-2.5873-0.73614-3.7512l-7.7278 0.69079c-1.4501 0.18287-1.623 1.4835-1.2343 2.2681l5.293 9.1804-0.0027764-0.015392c2.6808-1.9463 4.4081-4.9752 4.4081-8.3727zm-13.874-5.9584l-5.1811 0.0029318c1.2402-1.3442 2.8965-2.3491 4.7833-2.8511-0.58462 0.90225-0.11224 2.0717 0.44303 2.6283 0.098363 0.091617 0.051165 0.19606-0.045215 0.21988zm4.671-0.21988c0.54932-0.55667 1.0277-1.7261 0.44105-2.6283 1.8856 0.50206 3.5391 1.5069 4.7821 2.8511l-5.1807-0.0029318c-0.096776-0.02382-0.14477-0.12826-0.042439-0.21988zm-2.8454 0.50829c0.025384-0.6131-0.080515-0.80843-0.6231-1.4604-0.59454-0.72781-0.18483-2.1307 1.1546-2.1563 1.3354 0.025653 1.7479 1.4285 1.1526 2.1563-0.54615 0.65195-0.64491 0.84728-0.6231 1.4604 0.028557 0.51196 0.54139 1.1394 1.7106 1.1683h8.2014c-1.8376-3.628-5.8236-6.1409-10.444-6.1409-4.6191 0-8.6032 2.5129-10.44 6.1409h8.1982c1.1744-0.028951 1.6868-0.65635 1.7126-1.1683zm-5.801 14.566l0.0031729-0.0047641-0.0031729-7.329e-4v0.005497zm12.663 0v-0.005497l-0.003173 7.329e-4 0.003173 0.0047641zm-17.116-12.648h0.0019831l7.933e-4 -0.0018324-0.0027764 0.0018324zm3.2599 9.7173c-1.4933-1.6029-2.3948-3.6881-2.3948-5.9661 0-0.75053 0.10035-1.478 0.2824-2.179l5.8554 0.4973c0.42003 0.03115 0.45374 0.19936 0.35617 0.41851l-4.0991 7.2293zm5.7043-6.7584c0.38592-0.78461 0.21656-2.0852-1.2331-2.2681l-7.729-0.69079c-0.47635 1.1639-0.73534 2.4315-0.73534 3.7512 0 3.3975 1.7245 6.4264 4.4105 8.3727l-0.0051561 0.015392 5.2922-9.1804z" fill="#fff"/>
<path d="m79.264 30.012c-0.19395 0.18653-0.50966 0.56839-0.57193 1.1668-0.051164 0.53834 0.083688 0.69006 0.23441 0.98104 0.11899 0.23564 0.39662 0.22465 0.50173 0 0.076945-0.1781-0.037283-0.34558 0.039662-0.741 0.044025-0.29208 0.29628-0.44929 0.29628-0.44929l-0.024987-1.3131s-0.22132 0.10738-0.47516 0.35548" fill="#fff"/>
</g>
</g>
</g>
</g>
</svg>
