<svg id="Layer_1" style="padding-top: 10px; max-width:272px" version="1.1" viewBox="0 0 238.6 28" x="0px" xml:space="preserve" xmlns="http://www.w3.org/2000/svg" xmlns:xlink="http://www.w3.org/1999/xlink" y="0px"><style type="text/css">
<!--/*-->/* &gt;&lt;!--*/
.st0{fill:#686868;}
	.st1{fill:#FFFFFF;}
	.st2{fill:#0081C6;}
	.st3{fill:#1868A3;}

/*--&gt;&lt;!*/
</style><g><g><path class="st0" d="M73.5,20.6h-2.1l-3-9.9l0,0v9.9H66V9.1h4.1l2.4,8.4l0,0l2.6-8.4H79v11.5h-2.3v-9.9l0,0L73.5,20.6z"></path><path class="st0" d="M82.8,20.6L87,9.1h2.9l4,11.5h-2.5l-0.8-2.4H86l-0.9,2.4H82.8z M90,16.3l-1.6-4.9l0,0l-1.7,4.9H90z"></path><path class="st0" d="M103.8,12.4c-0.1-1.2-0.7-1.7-1.9-1.7c-0.9,0-1.8,0.5-1.8,1.5c0,1.2,1.1,1.4,2.1,1.6c1.8,0.4,4.3,0.9,4.3,3.3
			c0,2.9-2.5,3.8-5,3.8c-2.6,0-4.5-1-4.4-3.9h2.5c-0.1,1.3,0.6,2.1,1.9,2.1c1,0,2.3-0.3,2.3-1.5c0-1.4-1.6-1.5-2.6-1.7
			c-1.6-0.4-3.8-1.1-3.8-3.2c0-2.6,2.4-3.8,4.8-3.8c2.2,0,4,1.2,4,3.5C106.2,12.4,103.8,12.4,103.8,12.4z"></path><path class="st0" d="M117,12.4c-0.1-1.2-0.7-1.7-1.9-1.7c-0.9,0-1.8,0.5-1.8,1.5c0,1.2,1.1,1.4,2.1,1.6c1.8,0.4,4.3,0.9,4.3,3.3
			c0,2.9-2.5,3.8-5,3.8c-2.6,0-4.5-1-4.4-3.9h2.5c-0.1,1.3,0.6,2.1,1.9,2.1c1,0,2.3-0.3,2.3-1.5c0-1.4-1.6-1.5-2.6-1.7
			c-1.6-0.4-3.8-1.1-3.8-3.2c0-2.6,2.4-3.8,4.8-3.8c2.2,0,4,1.2,4,3.5C119.4,12.4,117,12.4,117,12.4z"></path><path class="st0" d="M123,20.6l4.2-11.5h2.9l4,11.5h-2.5l-0.8-2.4h-4.6l-0.9,2.4H123z M130.2,16.3l-1.6-4.9l0,0l-1.7,4.9H130.2z"></path><path class="st0" d="M144.4,12.8c0-1.2-0.7-2.2-2.2-2.2c-1.8,0-2.2,2.6-2.2,4.2s0.4,4.2,2.2,4.2c1.5,0,2.2-1,2.2-2.2h2.6
			c-0.1,2.9-2.2,4-4.8,4c-3.3,0-4.8-2.6-4.8-6s1.5-6,4.8-6c2.7,0,4.7,1.1,4.8,4C147,12.8,144.4,12.8,144.4,12.8z"></path><path class="st0" d="M151.1,20.6V9.1h2.5v4.5h4.4V9.1h2.5v11.5H158v-5.1h-4.4v5.1H151.1z"></path><path class="st0" d="M175.1,9.1v7.2c0,3.1-2.2,4.5-5,4.5s-5-1.5-5-4.5V9.1h2.5v6.3c0,1.9,0.1,3.7,2.5,3.7s2.5-1.8,2.5-3.7V9.1
			H175.1z"></path><path class="st0" d="M186.1,12.4c-0.1-1.2-0.7-1.7-1.9-1.7c-0.9,0-1.8,0.5-1.8,1.5c0,1.2,1.1,1.4,2.1,1.6c1.8,0.4,4.3,0.9,4.3,3.3
			c0,2.9-2.5,3.8-5,3.8c-2.6,0-4.5-1-4.4-3.9h2.5c-0.1,1.3,0.6,2.1,1.9,2.1c1,0,2.3-0.3,2.3-1.5c0-1.4-1.6-1.5-2.6-1.7
			c-1.6-0.4-3.8-1.1-3.8-3.2c0-2.6,2.4-3.8,4.8-3.8c2.2,0,4,1.2,4,3.5C188.5,12.4,186.1,12.4,186.1,12.4z"></path><path class="st0" d="M192.9,9.1h7.7V11h-5.2v2.7h4.9v1.9h-4.9v3.1h5.4v1.9h-7.9V9.1z"></path><path class="st0" d="M204.4,9.1h9.3V11h-3.4v9.6h-2.5V11h-3.4L204.4,9.1L204.4,9.1z"></path><path class="st0" d="M216.6,9.1h9.3V11h-3.4v9.6H220V11h-3.4L216.6,9.1L216.6,9.1z"></path><path class="st0" d="M235.9,12.4c-0.1-1.2-0.7-1.7-1.9-1.7c-0.9,0-1.8,0.5-1.8,1.5c0,1.2,1.1,1.4,2.1,1.6c1.8,0.4,4.3,0.9,4.3,3.3
			c0,2.9-2.5,3.8-5,3.8c-2.6,0-4.5-1-4.4-3.9h2.5c-0.1,1.3,0.6,2.1,1.9,2.1c1,0,2.3-0.3,2.3-1.5c0-1.4-1.6-1.5-2.6-1.7
			c-1.6-0.4-3.8-1.1-3.8-3.2c0-2.6,2.4-3.8,4.8-3.8c2.2,0,4,1.2,4,3.5C238.3,12.4,235.9,12.4,235.9,12.4z"></path></g><g><path class="st1" d="M42.3,26.9c4.7-2.6,7.6-7.1,9.1-11.6c1.5-4.7,1.6-10.4-0.1-13.8c-2.7,1.4-5.8,1.8-9,1.8s-6.2-0.4-9-1.8
			c-1.8,3.5-1.7,9.1-0.1,13.8C34.7,19.8,37.6,24.2,42.3,26.9L42.3,26.9z"></path><g><polygon class="st1" points="19.1,26.9 19.1,19.4 26.6,19.4 26.6,8.5 19.1,8.5 19.1,1 8.2,1 8.2,8.5 0.7,8.5 0.7,19.4 8.2,19.4 
				8.2,26.9"></polygon></g><path class="st2" d="M21,26.5c0-0.8,0.6-1.4,1.4-1.4c0.7,0,1.4,0.6,1.4,1.4s-0.6,1.4-1.4,1.4C21.6,27.8,21,27.2,21,26.5z
			 M22.4,27.6c0.6,0,1.1-0.5,1.1-1.2s-0.5-1.1-1.1-1.1s-1.1,0.5-1.1,1.1C21.3,27.1,21.8,27.6,22.4,27.6z M22.1,27.2h-0.2v-1.6h0.6
			c0.4,0,0.6,0.1,0.6,0.5c0,0.3-0.2,0.4-0.4,0.4l0.5,0.7h-0.3l-0.4-0.7h-0.3v0.7H22.1z M22.4,26.4c0.2,0,0.4,0,0.4-0.3
			c0-0.2-0.2-0.2-0.4-0.2h-0.3v0.5H22.4z"></path><path class="st2" d="M47,26.5c0-0.8,0.6-1.4,1.4-1.4c0.8,0,1.4,0.6,1.4,1.4s-0.6,1.4-1.4,1.4C47.7,27.8,47,27.2,47,26.5z
			 M48.4,27.6c0.6,0,1.1-0.5,1.1-1.2s-0.5-1.1-1.1-1.1s-1.1,0.5-1.1,1.1C47.3,27.1,47.8,27.6,48.4,27.6z M48.1,27.2h-0.2v-1.6h0.6
			c0.4,0,0.6,0.1,0.6,0.5c0,0.3-0.2,0.4-0.4,0.4l0.5,0.7h-0.3l-0.4-0.7h-0.3L48.1,27.2L48.1,27.2z M48.4,26.4c0.2,0,0.4,0,0.4-0.3
			c0-0.2-0.2-0.2-0.3-0.2h-0.3v0.5H48.4z"></path><g><polygon class="st3" points="19.7,27.7 19.7,20.1 27.4,20.1 27.4,7.9 19.7,7.9 19.7,0.3 7.6,0.3 7.6,7.9 0,7.9 0,20.1 7.6,20.1 
				7.6,27.7"></polygon></g><path class="st1" d="M13.7,14"></path><path class="st1" d="M13.7,14"></path><path class="st1" d="M13.7,14"></path><path class="st1" d="M13.7,14"></path><path class="st3" d="M42.4,28c5.3-2.9,8.4-7.5,10.1-12.6c1.7-5.3,1.4-11.5-0.6-15.4c-3,1.5-6,2.3-9.5,2.3S35.9,1.5,32.9,0
			c-2,3.9-2.3,10.1-0.6,15.4C33.9,20.5,37.1,25.1,42.4,28L42.4,28z"></path><g><g><path class="st1" d="M42.4,25.6L42.4,25.6L42.4,25.6L42.4,25.6z M50.7,2.9c-2.2,0.7-3.4,1-4.6,1.2C45,4.2,44,4.3,42.4,4.4l0,0
					c-1.6,0-2.6-0.1-3.7-0.3c-1.2-0.2-2.4-0.4-4.6-1.2c-1.4,3.5-1.1,8,0.2,11.9c1.5,4.3,3.8,8.2,8.1,10.9c4.3-2.7,6.6-6.5,8.1-10.9
					C51.8,10.9,52.1,6.4,50.7,2.9z M50,13.1c-1.3,5.5-4.6,9.7-7.6,11.5l0,0l0,0l0,0c-2.9-1.8-6.2-6-7.6-11.5c-0.7-2.9-0.9-6.2,0-8.8
					c1.3,0.3,2.5,0.6,3.8,0.8c1.3,0.2,2.5,0.3,3.7,0.3l0,0c1.2,0,2.5-0.1,3.7-0.3c1.3-0.2,2.5-0.5,3.8-0.8
					C50.9,6.9,50.7,10.1,50,13.1z"></path></g></g><path class="st1" d="M43.2,14.7v-2.4c0,0-0.3-0.1-0.7-0.1c-0.6,0-0.8,0-0.8,0v0.2c0,0-0.3,0.1-0.3,0.2c0,0-0.1,0.1-0.1,0.2
			c0.2,0.6,0.5,1.2,0.6,1.8C42.4,14.6,42.7,14.6,43.2,14.7z"></path><path class="st1" d="M40.4,14.3c-0.1,0.9,0.5,1.5,1.2,1.6c0.5,0.1,1.1,0.2,1.6,0.2c0.1,0,0.2,0,0.3,0.1c0.1,0,0.1,0.1,0.2,0.2
			c0,0.1,0,0.2,0,0.2c-0.1,0.1-0.2,0.1-0.2,0.1v1.1c0,0,0.5,0,0.8-0.2s0.6-0.5,0.6-0.8c0.1-0.4,0-0.8-0.2-1.2
			c-0.2-0.3-0.5-0.4-0.8-0.5c-0.7-0.2-1.4-0.2-2.1-0.3c-0.1,0-0.2-0.1-0.2-0.2c0-0.2,0.1-0.3,0.1-0.3s-0.1-0.3-0.2-0.5
			c-0.1-0.2-0.2-0.5-0.3-0.6C40.7,13.4,40.4,13.8,40.4,14.3z"></path><path class="st1" d="M43.2,16.4v2l-0.5-0.2L42.1,18v-1.7C42.6,16.4,42.8,16.4,43.2,16.4z"></path><path class="st1" d="M40.9,17.6c-0.3,0.7,0.1,1.3,0.6,1.6c0.3,0.1,0.7,0.3,1,0.4s0.8,0.5,0.9,0.6c0,0.1-0.1,0.2-0.1,0.2v0.8
			c0,0,0.3-0.1,0.6-0.3c0.2-0.2,0.4-0.4,0.4-0.8s-0.2-0.8-0.8-1.1c-0.5-0.3-1.1-0.5-1.5-0.7c-0.1,0-0.1-0.2-0.1-0.2
			C41.9,18,42,18,42,18v-0.9c0,0-0.4,0.1-0.5,0.2C41.2,17.2,41,17.3,40.9,17.6z"></path><path class="st1" d="M43.1,20.3c0-0.1,0-0.1,0-0.1c-0.1-0.1-0.3-0.2-0.4-0.3c-0.1-0.1-0.5-0.2-0.5-0.2s0,2.1,0.1,3.2
			c0,0.2,0.1,0.3,0.4,0.3c0.3,0,0.4-0.2,0.4-0.3C43,22.6,43.1,21.1,43.1,20.3z"></path><path class="st1" d="M43.3,6.8c0.1,0.1,0.1,0.1,0.1,0.2c0.1,0.3,0,0.9,0.1,1.1c0,0.1,0.1,0.1,0.2,0c0.5-0.2,0.8-0.7,1.2-0.9
			c0.2-0.1,0.8,0.2,0.7,0.7c-0.1,0.2-0.2,0.2-0.3,0.4c-0.3,0.3-0.7,0.5-1,0.9c-0.2,0.2-0.5,0.4-0.7,0.7c-0.1,0.1-0.1,0.2-0.1,0.2
			c-0.6-0.1-1.3-0.1-1.8-0.2V9.1c0,0,0.5-0.1,0.6-0.3c0,0,0-0.1-0.1-0.2c-0.1-0.1-0.2-0.1-0.3-0.2c0.5,0.1,0.8,0.2,1.3,0.4
			c0-0.1,0-0.2,0-0.2c-0.1-0.1-0.1-0.1-0.3-0.1c-0.3-0.1-1.1-0.2-1.1-0.2s0.4,0,0.7-0.1c0.2,0,0.3-0.1,0.3-0.1c0-0.1,0-0.2-0.1-0.3
			c-0.1-0.1-0.2-0.2-0.2-0.2c-0.1-0.1-0.2-0.3-0.3-0.4s-0.4-0.3-0.4-0.3s0-0.4,0-0.6c0.1-0.1,0.2-0.2,0.3-0.2
			C42.5,6.5,42.8,6.8,43.3,6.8z"></path><g><g><path class="st1" d="M45.4,12.1c-0.1-0.5-0.5-1-0.9-1.2c-1.2-0.6-2.4-0.3-3.6-0.7c-0.4-0.1-1-0.3-1.1-0.8c0-0.2,0-0.5,0.2-0.6
					c0.3-0.1,0.6,0.2,1.1,0.3c0.3,0.1,0.5,0.1,0.8,0C42,9.1,42.1,9,42.1,9S42,8.9,41.9,8.9c-0.1-0.1-0.3-0.1-0.4-0.2
					c-0.2-0.1-0.5-0.2-0.7-0.3c0.2,0,0.6-0.1,0.8,0c0.2,0,0.7,0,0.9,0c0,0,0.1,0,0.1-0.1C42.5,8,42.4,8,42.3,7.9
					c-0.2-0.2-0.3-0.4-0.6-0.5c-0.8-0.3-1.6-0.4-2.4,0c-1,0.5-1.3,1.7-0.9,2.7c0.4,0.8,1.1,1.4,2,1.7c0.4,0.1,0.9,0.2,1.3,0.2
					c0.6,0,1.1,0,1.6,0.2c0.1,0,0.2,0.1,0.3,0.2c0.1,0.3,0,0.6-0.3,0.6c0,0.5,0,1.4,0,1.4S45.8,14.1,45.4,12.1z M41.8,7.6
					C41.7,7.6,41.7,7.6,41.8,7.6c-0.2,0.1-0.3,0.1-0.4,0.2c-0.2,0-0.2-0.1-0.3-0.3c-0.1-0.1-0.2,0-0.3-0.1
					C41.1,7.4,41.5,7.4,41.8,7.6z"></path></g></g><g><g><path class="st1" d="M12.5,13.5c0.3-0.6,0.1-1.5-0.8-1.6l-5-0.5c-0.3,0.8-0.5,1.7-0.5,2.7c0,2.4,1.1,4.5,2.9,5.9l0,0L12.5,13.5z
					 M8.8,18.2c-1-1.1-1.6-2.6-1.6-4.2c0-0.5,0.1-1,0.2-1.5l3.8,0.4c0.3,0,0.3,0.1,0.2,0.3L8.8,18.2z M17.8,20.3L17.8,20.3
					L17.8,20.3L17.8,20.3z M6.7,11.4L6.7,11.4L6.7,11.4L6.7,11.4z M13.4,10c0-0.4-0.1-0.6-0.4-1c-0.4-0.5-0.1-1.5,0.8-1.5
					c0.9,0,1.1,1,0.8,1.5c-0.4,0.5-0.4,0.6-0.4,1s0.4,0.8,1.1,0.8h5.4c-1.2-2.6-3.8-4.3-6.8-4.3s-5.6,1.8-6.8,4.3h5.4
					C13,10.8,13.3,10.4,13.4,10z M15.2,9.7c0.4-0.4,0.7-1.2,0.3-1.9c1.2,0.4,2.3,1.1,3.1,2L15.2,9.7C15.2,9.8,15.1,9.7,15.2,9.7z
					 M12.2,9.8H8.8c0.8-1,1.9-1.7,3.1-2c-0.4,0.6-0.1,1.5,0.3,1.9C12.3,9.7,12.2,9.8,12.2,9.8z M9.6,20.3L9.6,20.3L9.6,20.3
					L9.6,20.3z M20.7,11.4L20.7,11.4L20.7,11.4L20.7,11.4z M13.2,14.8l-3.7,5.5c1.2,0.8,2.6,1.2,4.1,1.2s2.9-0.5,4.1-1.2L14,14.8
					C13.9,14.5,13.5,14.4,13.2,14.8z M13.7,20.5c-0.9,0-1.8-0.2-2.6-0.6l2.5-3.9l0.1-0.1c0,0,0.1,0,0.1,0.1l2.5,3.9
					C15.5,20.3,14.6,20.5,13.7,20.5z M21.2,14c0-0.9-0.2-1.8-0.5-2.7l-5,0.5c-0.9,0.1-1.1,1-0.8,1.6l3.5,6.5l0,0
					C20.1,18.6,21.2,16.4,21.2,14z M15.9,13.1c-0.1-0.2,0-0.3,0.2-0.3l3.8-0.4c0.1,0.5,0.2,1,0.2,1.5c0,1.6-0.6,3.1-1.6,4.2
					L15.9,13.1z"></path></g></g><g><path class="st1" d="M41.7,21c-0.1,0.1-0.3,0.4-0.4,0.8c0,0.4,0.1,0.5,0.2,0.7c0.1,0.2,0.3,0.2,0.3,0c0.1-0.1,0-0.2,0-0.5
				c0-0.2,0.2-0.3,0.2-0.3v-0.9C42,20.8,41.9,20.9,41.7,21z"></path></g></g></g></svg>