<?xml version="1.0" encoding="UTF-8" standalone="no"?>
<svg width="24px" height="24px" viewBox="0 0 24 24" version="1.1" xmlns="http://www.w3.org/2000/svg" xmlns:xlink="http://www.w3.org/1999/xlink">
    <!-- Generator: Sketch 47 (45396) - http://www.bohemiancoding.com/sketch -->
    <title>!UI Kit / Icons / Social / Facebook</title>
    <desc>Created with Sketch.</desc>
    <defs></defs>
    <g id="Symbols" stroke="none" stroke-width="1" fill="none" fill-rule="evenodd">
        <g id="!UI-Kit-/-Molecule-/-Footer-/-Social" transform="translate(-88.000000, 0.000000)">
            <g id="!UI-Kit-/-Icons-/-Social-/-Facebook" transform="translate(88.000000, 0.000000)">
                <path d="M21,24 L3,24 C1.344,24 0,22.656 0,21 L0,3 C0,1.344 1.344,0 3,0 L21,0 C22.656,0 24,1.344 24,3 L24,21 C24,22.656 22.656,24 21,24 Z" id="Shape" fill="#395185" fill-rule="nonzero"></path>
                <path d="M16.5407463,23.9504776 L16.5407463,14.694806 L19.6474925,14.694806 L20.1126269,11.0876418 L16.5407463,11.0876418 L16.5407463,8.78462687 C16.5407463,7.74026866 16.8307164,7.02859701 18.3283881,7.02859701 L20.2385373,7.02770149 L20.2385373,3.80149254 C19.908,3.75761194 18.7742687,3.65937313 17.4551642,3.65937313 C14.7011642,3.65937313 12.8157313,5.34035821 12.8157313,8.42749254 L12.8157313,11.0876418 L9.70101493,11.0876418 L9.70101493,14.694806 L12.8157313,14.694806 L12.8157313,23.9504776 L16.5407463,23.9504776" id="Fill-16" fill="#FFFFFE" fill-rule="evenodd"></path>
            </g>
        </g>
    </g>
</svg>