<?xml version="1.0" encoding="UTF-8" standalone="no"?>
<svg width="24px" height="24px" viewBox="0 0 24 24" version="1.1" xmlns="http://www.w3.org/2000/svg" xmlns:xlink="http://www.w3.org/1999/xlink">
    <!-- Generator: Sketch 47 (45396) - http://www.bohemiancoding.com/sketch -->
    <title>!UI Kit / Icons / Social / LinkedIn</title>
    <desc>Created with Sketch.</desc>
    <defs></defs>
    <g id="Symbols" stroke="none" stroke-width="1" fill="none" fill-rule="evenodd">
        <g id="!UI-Kit-/-Molecule-/-Footer-/-Social">
            <g id="!UI-Kit-/-Icons-/-Social-/-LinkedIn">
                <path d="M21,24 L3,24 C1.344,24 0,22.656 0,21 L0,3 C0,1.344 1.344,0 3,0 L21,0 C22.656,0 24,1.344 24,3 L24,21 C24,22.656 22.656,24 21,24 Z" id="Shape-Copy-2" fill="#0077B5" fill-rule="nonzero"></path>
                <path d="M5.30217931,3.30416667 C6.43233103,3.30416667 7.35078621,4.229 7.35078621,5.3675 C7.35078621,6.50683333 6.43233103,7.432 5.30217931,7.432 C4.16904828,7.432 3.25191724,6.50683333 3.25191724,5.3675 C3.25191724,4.229 4.16904828,3.30416667 5.30217931,3.30416667 L5.30217931,3.30416667 Z M3.5337931,20.4511667 L7.06907586,20.4511667 L7.06907586,8.99766667 L3.5337931,8.99766667 L3.5337931,20.4511667 Z" id="Fill-4" fill="#FFFFFE" fill-rule="evenodd"></path>
                <path d="M9.28617931,8.99766667 L12.6774621,8.99766667 L12.6774621,10.5625 L12.724469,10.5625 C13.1961931,9.66216667 14.3493517,8.71266667 16.0692414,8.71266667 C19.6490483,8.71266667 20.3099586,11.0848333 20.3099586,14.1686667 L20.3099586,20.4511667 L16.7771586,20.4511667 L16.7771586,14.8813333 C16.7771586,13.5525 16.7529931,11.8441667 14.9402483,11.8441667 C13.1005241,11.8441667 12.8188138,13.2911667 12.8188138,14.7851667 L12.8188138,20.4511667 L9.28617931,20.4511667 L9.28617931,8.99766667" id="Fill-5" fill="#FFFFFE" fill-rule="evenodd"></path>
            </g>
        </g>
    </g>
</svg>