<?xml version="1.0" encoding="utf-8"?>
<!-- Generator: Adobe Illustrator 21.1.0, SVG Export Plug-In . SVG Version: 6.00 Build 0)  -->
<svg version="1.1" id="Layer_1" xmlns="http://www.w3.org/2000/svg" xmlns:xlink="http://www.w3.org/1999/xlink" x="0px" y="0px"
	 viewBox="0 0 20.8 15.9" style="enable-background:new 0 0 20.8 15.9;" xml:space="preserve">
<style type="text/css">
	.st0{fill:#00A33A;}
</style>
<g>
	<path class="st0" d="M20.8,3.1c0,0.4-0.1,0.7-0.4,0.9l-9.7,9.7l-1.8,1.8c-0.2,0.2-0.6,0.4-0.9,0.4S7.3,15.8,7,15.5l-1.8-1.8
		L0.4,8.9C0.1,8.6,0,8.3,0,8S0.1,7.3,0.4,7l1.8-1.8C2.4,5,2.8,4.8,3.1,4.8S3.8,5,4,5.2l3.9,4l8.8-8.8C17,0.1,17.3,0,17.7,0
		c0.4,0,0.7,0.1,0.9,0.4l1.8,1.8C20.6,2.4,20.8,2.8,20.8,3.1z"/>
</g>
</svg>
