<?xml version="1.0" encoding="utf-8"?>
<!-- Generator: Adobe Illustrator 21.1.0, SVG Export Plug-In . SVG Version: 6.00 Build 0)  -->
<svg version="1.1" id="Layer_1" xmlns="http://www.w3.org/2000/svg" xmlns:xlink="http://www.w3.org/1999/xlink" x="0px" y="0px"
	 viewBox="0 0 44 44" style="enable-background:new 0 0 44 44;" xml:space="preserve">
<style type="text/css">
	.st0{fill:#FFFFFF;}
</style>
<path class="st0" d="M43.2,39.3L25.9,22L43.2,4.7c1.1-1.1,1.1-2.8,0-3.9c-1.1-1.1-2.8-1.1-3.9,0L22,18.1L4.7,0.8
	c-1.1-1.1-2.8-1.1-3.9,0c-1.1,1.1-1.1,2.8,0,3.9L18.1,22L0.8,39.3C0.3,39.8,0,40.5,0,41.2c0,0.7,0.3,1.4,0.8,1.9
	C1.3,43.7,2,44,2.8,44s1.4-0.3,1.9-0.8L22,25.9l17.3,17.3c0.5,0.5,1.2,0.8,1.9,0.8s1.4-0.3,1.9-0.8c0.5-0.5,0.8-1.2,0.8-1.9
	C44,40.5,43.7,39.8,43.2,39.3z"/>
</svg>
