<?xml version="1.0" encoding="utf-8"?>
<!-- Generator: Adobe Illustrator 21.1.0, SVG Export Plug-In . SVG Version: 6.00 Build 0)  -->
<svg version="1.1" id="Layer_1" xmlns="http://www.w3.org/2000/svg" xmlns:xlink="http://www.w3.org/1999/xlink" x="0px" y="0px"
	 viewBox="0 0 60 60" style="enable-background:new 0 0 60 60;" xml:space="preserve">
<style type="text/css">
	.st0{fill:#FFFFFF;}
</style>
<g>
	<g>
		<g>
			<path class="st0" d="M30,60C13.5,60,0,46.5,0,30C0,13.5,13.5,0,30,0c16.5,0,30,13.5,30,30C60,46.5,46.5,60,30,60L30,60z M30,1.3
				C14.2,1.3,1.3,14.2,1.3,30c0,15.8,12.9,28.7,28.7,28.7c15.8,0,28.7-12.9,28.7-28.7C58.7,14.2,45.8,1.3,30,1.3L30,1.3z"/>
		</g>
	</g>
	<g>
		<rect x="28.7" y="14.9" class="st0" width="2.7" height="12"/>
		<path class="st0" d="M35.2,20.4l-1.3,2.2c3.8,1.5,6.5,5.3,6.5,9.6c0,5.7-4.7,10.4-10.4,10.4s-10.4-4.7-10.4-10.4
			c0-4.2,2.5-7.8,6.1-9.5l-1.1-2.2c-4.4,2-7.5,6.5-7.5,11.7c0,7.1,5.8,12.9,12.9,12.9c7.1,0,12.9-5.8,12.9-12.9
			C42.9,26.9,39.7,22.4,35.2,20.4z"/>
	</g>
</g>
</svg>
