<?xml version="1.0" encoding="UTF-8" standalone="no"?>
<svg width="188px" height="67px" viewBox="0 0 188 67" version="1.1" xmlns="http://www.w3.org/2000/svg" xmlns:xlink="http://www.w3.org/1999/xlink">
    <!-- Generator: Sketch 48.1 (47250) - http://www.bohemiancoding.com/sketch -->
    <title>!UI Kit / Logos / BCBSMA</title>
    <desc>Created with Sketch.</desc>
    <defs>
        <polygon id="path-1" points="0.083738563 0.240403962 34.4197248 0.240403962 34.4197248 39.8549823 0.083738563 39.8549823"></polygon>
    </defs>
    <g id="@Screens-/-8.0-Authentication-/-Desktop-/-8.2.2-Member-ID-Error" stroke="none" stroke-width="1" fill="none" fill-rule="evenodd" transform="translate(-235.000000, -652.000000)">
        <g id="!UI-Kit-/-Footer-/-Desktop-/-Focused-Task" transform="translate(235.000000, 632.000000)">
            <g id="!UI-Kit-/-Logos-/-BCBSMA" transform="translate(0.000000, 20.000000)">
                <polygon id="Fill-1" fill="#A4A4A6" points="9.92283038 54.2578548 7.07149705 62.6848199 7.03699072 62.6848199 4.41292321 54.2578548 7.93248945e-05 54.2578548 7.93248945e-05 65.8496501 2.51943797 65.8496501 2.51943797 55.9289555 2.55315105 55.8945074 5.87369114 65.8496501 8.11461941 65.8496501 11.6235561 55.8945074 11.6592523 55.9289555 11.6592523 65.8496501 14.1794042 65.8496501 14.1794042 54.2578548"></polygon>
                <path d="M22.8198684,54.257525 L18.2836743,65.8493203 L20.8561806,65.8493203 L21.7941975,63.3943414 L26.7646954,63.3943414 L27.6682059,65.8493203 L30.3783409,65.8493203 L26.0174549,54.257525 L22.8198684,54.257525 Z M24.330611,56.5219398 L24.3671004,56.5219398 L26.0852776,61.4659792 L22.4898768,61.4659792 L24.330611,56.5219398 Z" id="Fill-2" fill="#A4A4A6"></path>
                <g id="Group-58" transform="translate(33.713080, 0.126065)">
                    <path d="M7.47867173,57.4396159 C7.37515274,56.2683795 6.69613165,55.687159 5.39322025,55.687159 C4.40284895,55.687159 3.39502616,56.1719981 3.39502616,57.1812549 C3.39502616,58.4334811 4.61147342,58.5808018 5.68830886,58.8190069 C7.59964219,59.2682985 10.4156759,59.7677964 10.4156759,62.0956103 C10.4156759,64.9676314 7.7051443,65.9640619 5.01127089,65.9640619 C2.14407257,65.9640619 0.110975527,64.9357486 0.197439662,62.0135212 L2.94247764,62.0135212 C2.84014852,63.2987295 3.63815696,64.1654298 5.04577722,64.1654298 C6.12340591,64.1654298 7.54768439,63.8616266 7.54768439,62.6266246 C7.54768439,61.2607929 5.75811477,61.1655108 4.68048608,60.9078828 C2.92581941,60.5051329 0.527034599,59.7677964 0.527034599,57.7122692 C0.527034599,55.0623286 3.16974346,53.8899928 5.74145654,53.8899928 C8.17355781,53.8899928 10.067043,55.1114355 10.067043,57.4396159 L7.47867173,57.4396159" id="Fill-3" fill="#A4A4A6"></path>
                    <path d="M21.7665131,57.4396159 C21.6633907,56.2683795 20.9851629,55.687159 19.6830447,55.687159 C18.6918802,55.687159 17.6840574,56.1719981 17.6840574,57.1812549 C17.6840574,58.4334811 18.9012979,58.5808018 19.9773401,58.8190069 C21.8874835,59.2682985 24.7043105,59.7677964 24.7043105,62.0956103 C24.7043105,64.9676314 21.9929857,65.9640619 19.3010954,65.9640619 C16.4331038,65.9640619 14.4008,64.9357486 14.4864709,62.0135212 L17.2311122,62.0135212 C17.1279899,63.2987295 17.9279814,64.1654298 19.3344118,64.1654298 C20.4112473,64.1654298 21.8375089,63.8616266 21.8375089,62.6266246 C21.8375089,61.2607929 20.0479392,61.1655108 18.9695173,60.9078828 C17.214454,60.5051329 14.8168591,59.7677964 14.8168591,57.7122692 C14.8168591,55.0623286 17.4575848,53.8899928 20.0292979,53.8899928 C22.4633823,53.8899928 24.3568675,55.1114355 24.3568675,57.4396159 L21.7665131,57.4396159" id="Fill-5" fill="#A4A4A6"></path>
                    <path d="M36.1943232,61.3401335 L34.4749561,56.3957277 L34.4392599,56.3957277 L32.5981291,61.3401335 L36.1943232,61.3401335 Z M28.3923232,65.7231082 L32.9277241,54.1313129 L36.1265004,54.1313129 L40.4854034,65.7231082 L37.7768549,65.7231082 L36.8713612,63.2681293 L31.903243,63.2681293 L30.9640363,65.7231082 L28.3923232,65.7231082 Z" id="Fill-7" fill="#A4A4A6"></path>
                    <path d="M51.6643435,57.8898236 C51.6841747,56.667648 50.8829932,55.6873422 49.2667485,55.6873422 C47.3554152,55.6873422 46.8691536,58.3054 46.8691536,59.9270273 C46.8691536,61.5482882 47.3554152,64.1645136 49.2667485,64.1645136 C50.8829932,64.1645136 51.6841747,63.1860402 51.6643435,61.9675292 L54.532335,61.9675292 C54.4101747,64.8739985 52.1513983,65.9642451 49.2667485,65.9642451 C45.6352549,65.9642451 44.001162,63.3143045 44.001162,59.9270273 C44.001162,56.5404831 45.6352549,53.890176 49.2667485,53.890176 C52.1513983,53.890176 54.4101747,54.9807891 54.532335,57.8898236 L51.6643435,57.8898236" id="Fill-9" fill="#A4A4A6"></path>
                    <polygon id="Fill-11" fill="#A4A4A6" points="58.8988928 65.7234747 58.8988928 54.1316794 61.5907831 54.1316794 61.5907831 58.7085164 66.3356017 58.7085164 66.3356017 54.1316794 69.0639814 54.1316794 69.0639814 65.7234747 66.3720911 65.7234747 66.3720911 60.6335804 61.5907831 60.6335804 61.5907831 65.7234747"></polygon>
                    <path d="M85.1392506,54.1315328 L85.1392506,61.3883609 C85.1392506,64.470369 82.7448287,65.964465 79.7015291,65.964465 C76.6614025,65.964465 74.2638076,64.470369 74.2638076,61.3883609 L74.2638076,54.1315328 L76.9584743,54.1315328 L76.9584743,60.4245463 C76.9584743,62.3833255 77.0639764,64.1647335 79.7015291,64.1647335 C82.3422549,64.1647335 82.4505333,62.3833255 82.4505333,60.4245463 L82.4505333,54.1315328 L85.1392506,54.1315328" id="Fill-13" fill="#A4A4A6"></path>
                    <path d="M97.0482177,57.4396159 C96.9458886,56.2683795 96.2696439,55.687159 94.9647494,55.687159 C93.9743781,55.687159 92.965762,56.1719981 92.965762,57.1812549 C92.965762,58.4334811 94.1841924,58.5808018 95.2618211,58.8190069 C97.1731544,59.2682985 99.9872051,59.7677964 99.9872051,62.0956103 C99.9872051,64.9676314 97.2746903,65.9640619 94.5828,65.9640619 C91.7156017,65.9640619 89.6825046,64.9357486 89.7701586,62.0135212 L92.5128169,62.0135212 C92.4116776,63.2987295 93.2096861,64.1654298 94.6161165,64.1654298 C95.694935,64.1654298 97.1192135,63.8616266 97.1192135,62.6266246 C97.1192135,61.2607929 95.3296439,61.1655108 94.2512219,60.9078828 C92.4993316,60.5051329 90.0985637,59.7677964 90.0985637,57.7122692 C90.0985637,55.0623286 92.7404793,53.8899928 95.3129857,53.8899928 C97.7450869,53.8899928 99.639762,55.1114355 99.639762,57.4396159 L97.0482177,57.4396159" id="Fill-15" fill="#A4A4A6"></path>
                    <polygon id="Fill-17" fill="#A4A4A6" points="104.458313 54.1315328 112.866355 54.1315328 112.866355 56.0584292 107.150997 56.0584292 107.150997 58.7714026 112.504237 58.7714026 112.504237 60.6990319 107.150997 60.6990319 107.150997 63.7956988 113.058322 63.7956988 113.058322 65.7233281 104.458313 65.7233281"></polygon>
                    <polygon id="Fill-19" fill="#A4A4A6" points="116.990338 54.1315328 127.156219 54.1315328 127.156219 56.0584292 123.422 56.0584292 123.422 65.7233281 120.727333 65.7233281 120.727333 56.0584292 116.990338 56.0584292"></polygon>
                    <polygon id="Fill-21" fill="#A4A4A6" points="130.30871 54.1315328 140.471815 54.1315328 140.471815 56.0584292 136.734423 56.0584292 136.734423 65.7233281 134.042929 65.7233281 134.042929 56.0584292 130.30871 56.0584292"></polygon>
                    <path d="M151.28713,57.4396159 C151.182818,56.2683795 150.502607,55.687159 149.200489,55.687159 C148.209324,55.687159 147.202691,56.1719981 147.202691,57.1812549 C147.202691,58.4334811 148.419138,58.5808018 149.494784,58.8190069 C151.405324,59.2682985 154.222944,59.7677964 154.222944,62.0956103 C154.222944,64.9676314 151.51043,65.9640619 148.817746,65.9640619 C145.950548,65.9640619 143.918244,64.9357486 144.005898,62.0135212 L146.751729,62.0135212 C146.643451,63.2987295 147.445822,64.1654298 148.853046,64.1654298 C149.930674,64.1654298 151.354953,63.8616266 151.354953,62.6266246 C151.354953,61.2607929 149.56578,61.1655108 148.488151,60.9078828 C146.732295,60.5051329 144.3347,59.7677964 144.3347,57.7122692 C144.3347,55.0623286 146.975425,53.8899928 149.549122,53.8899928 C151.980033,53.8899928 153.874708,55.1114355 153.874708,57.4396159 L151.28713,57.4396159" id="Fill-23" fill="#A4A4A6"></path>
                    <path d="M80.1896945,38.2403912 C87.4423696,34.5427144 91.8389519,28.2570303 94.0977283,21.7914098 C96.4497114,15.082087 96.6250194,7.14582452 93.905762,2.19958631 C89.7661924,4.1275821 85.0340658,4.69780857 80.1896945,4.710635 C75.3512726,4.72419437 70.6211291,4.1275821 66.4827494,2.19958631 C63.7611122,7.14582452 63.9372135,15.082087 66.2876101,21.7914098 C68.5523359,28.2570303 72.9397958,34.5427144 80.1896945,38.2403912" id="Fill-25" fill="#FFFFFF"></path>
                    <polygon id="Fill-27" fill="#FFFFFF" points="44.7046549 38.3398876 44.7046549 27.7265658 56.1984354 27.7265658 56.1984354 12.2260073 44.7046549 12.2260073 44.7046549 1.60902078 27.9837603 1.60902078 27.9837603 12.2260073 16.4963257 12.2260073 16.4963257 27.7265658 27.9837603 27.7265658 27.9837603 38.3398876"></polygon>
                    <path d="M49.6815384,37.5353772 C49.995665,37.5353772 50.2760785,37.5144885 50.2760785,37.1663425 C50.2760785,36.8859934 49.9984414,36.8361535 49.7414287,36.8361535 L49.2424751,36.8361535 L49.2424751,37.5353772 L49.6815384,37.5353772 Z M49.2424751,38.7931004 L48.8744076,38.7931004 L48.8744076,36.5459097 L49.7977494,36.5459097 C50.3752346,36.5459097 50.6560447,36.7423374 50.6560447,37.1890636 C50.6560447,37.5899812 50.3831671,37.7625883 50.0269983,37.8018005 L50.7206945,38.7931004 L50.3046354,38.7931004 L49.6648802,37.820124 L49.2424751,37.820124 L49.2424751,38.7931004 Z M49.6874878,39.2958965 C50.640973,39.2958965 51.3941629,38.6021698 51.3941629,37.6654739 C51.3941629,36.7423374 50.640973,36.0467783 49.6874878,36.0467783 C48.7221038,36.0467783 47.9720869,36.7423374 47.9720869,37.6654739 C47.9720869,38.6021698 48.7221038,39.2958965 49.6874878,39.2958965 Z M47.5449224,37.6654739 C47.5449224,36.5459097 48.5269646,35.7220864 49.6874878,35.7220864 C50.8341291,35.7220864 51.8133949,36.5459097 51.8133949,37.6654739 C51.8133949,38.7931004 50.8341291,39.619489 49.6874878,39.619489 C48.5269646,39.619489 47.5449224,38.7931004 47.5449224,37.6654739 Z" id="Fill-29" fill="#3A73B6"></path>
                    <path d="M89.5514996,37.5353772 C89.8624532,37.5353772 90.1400903,37.5144885 90.1400903,37.1663425 C90.1400903,36.8859934 89.8624532,36.8361535 89.6046473,36.8361535 L89.1076768,36.8361535 L89.1076768,37.5353772 L89.5514996,37.5353772 Z M89.1076768,38.7931004 L88.7396093,38.7931004 L88.7396093,36.5459097 L89.6677105,36.5459097 C90.2392464,36.5459097 90.5220397,36.7423374 90.5220397,37.1890636 C90.5220397,37.5899812 90.2451958,37.7625883 89.8929932,37.8018005 L90.5866895,38.7931004 L90.1745966,38.7931004 L89.5316684,37.820124 L89.1076768,37.820124 L89.1076768,38.7931004 Z M89.5514996,39.2958965 C90.5081578,39.2958965 91.2581747,38.6021698 91.2581747,37.6654739 C91.2581747,36.7423374 90.5081578,36.0467783 89.5514996,36.0467783 C88.588892,36.0467783 87.836892,36.7423374 87.836892,37.6654739 C87.836892,38.6021698 88.588892,39.2958965 89.5514996,39.2958965 Z M87.4077443,37.6654739 C87.4077443,36.5459097 88.3901831,35.7220864 89.5514996,35.7220864 C90.7040903,35.7220864 91.6833561,36.5459097 91.6833561,37.6654739 C91.6833561,38.7931004 90.7040903,39.619489 89.5514996,39.619489 C88.3901831,39.619489 87.4077443,38.7931004 87.4077443,37.6654739 Z" id="Fill-31" fill="#3A73B6"></path>
                    <polygon id="Fill-33" fill="#1D75BC" points="45.6389038 39.4339455 45.6389038 28.6597436 57.2996633 28.6597436 57.2996633 11.4360458 45.6389038 11.4360458 45.6389038 0.661477364 27.0629966 0.661477364 27.0629966 11.4360458 15.4010473 11.4360458 15.4010473 28.6597436 27.0629966 28.6597436 27.0629966 39.4339455"></polygon>
                    <g id="Group-37" transform="translate(63.063291, 0.000000)">
                        <mask id="mask-2" fill="white">
                            <use xlink:href="#path-1"></use>
                        </mask>
                        <g id="Clip-36"></g>
                        <path d="M17.2533232,39.8549823 C25.3071797,35.7384309 30.1908169,29.1932865 32.7046228,22.0057211 C35.3144118,14.5539312 34.8785215,5.73301148 31.8550532,0.240367315 C27.2550025,2.38018245 22.6299646,3.45613677 17.2533232,3.46859673 C11.8746987,3.48398845 7.24966076,2.38018245 2.64961013,0.240367315 C-0.380997468,5.73301148 -0.806972152,14.5539312 1.80004051,22.0057211 C4.31582954,29.1932865 9.20263966,35.7384309 17.2533232,39.8549823" id="Fill-35" fill="#1D75BC" mask="url(#mask-2)"></path>
                    </g>
                    <path d="M91.90967,18.7201759 C89.8813325,26.4937259 84.7966068,32.4056111 80.3167333,35.0101095 C80.3187165,35.0108425 80.3206996,35.0126748 80.3226827,35.0134078 L80.3115772,35.0134078 C80.3135603,35.0126748 80.3155435,35.0108425 80.3155435,35.0108425 C75.8344802,32.4056111 70.7561004,26.4937259 68.7257797,18.7201759 C67.6469612,14.5896986 67.3455266,9.95276065 68.7531468,6.27523969 C70.7568937,6.76924051 72.6277713,7.17748748 74.5708346,7.42118967 C76.5067586,7.66122716 78.4200751,7.83676603 80.3088008,7.8466607 L80.3266489,7.8466607 C82.2114084,7.83676603 84.1247249,7.66122716 86.0642186,7.42118967 C88.0025224,7.17748748 89.8773662,6.76924051 91.8870624,6.27523969 C93.2915097,9.95276065 92.9884886,14.5896986 91.90967,18.7201759 M93.0218051,4.35567269 C89.7068177,5.40963884 87.7669274,5.73323137 85.9638726,5.99269174 C84.2829781,6.23529452 82.7888937,6.38518052 80.3266489,6.41339867 L80.3088008,6.41339867 C77.8481426,6.38518052 76.3512819,6.23529452 74.6672143,5.99269174 C72.8661426,5.73323137 70.9242692,5.40963884 67.6124549,4.35567269 C65.4036532,9.33269434 65.893881,15.7092628 67.9047671,21.1553654 C70.1635435,27.2893311 73.692708,32.7218743 80.3175266,36.5141002 C86.9383789,32.7218743 90.4687333,27.2893311 92.7275097,21.1553654 C94.7403789,15.7092628 95.2294169,9.33269434 93.0218051,4.35567269 M80.3266489,36.5195972 L80.3206996,36.5159325 C80.3147502,36.5159325 80.3115772,36.5177649 80.3088008,36.5195972 L80.3266489,36.5195972" id="Fill-38" fill="#FFFFFF"></path>
                    <path d="M81.6079443,21.0376187 L81.6218262,17.6294528 C81.6218262,17.6294528 81.1534127,17.5385684 80.4926363,17.4982568 C79.6268051,17.4465846 79.23613,17.4546469 79.23613,17.4546469 L79.2321637,17.7448907 C79.2321637,17.7448907 78.8184844,17.9050379 78.7546278,18.0083822 C78.7232945,18.0611538 78.615016,18.1868529 78.6669738,18.3121854 C79.0064844,19.157264 79.4760878,19.9737579 79.608957,20.873074 C80.2546616,20.9540637 80.824611,20.9412373 81.6079443,21.0376187" id="Fill-40" fill="#FFFFFF"></path>
                    <path d="M77.1917688,20.5199806 C77.0422414,21.8612588 77.9870008,22.5762407 79.0281401,22.8089488 C79.853119,22.9888853 80.6570768,23.0280976 81.5201316,23.125212 C81.6216675,23.1310755 81.8568658,23.1354731 82.0290008,23.2091335 C82.1848743,23.268868 82.2594397,23.3527895 82.2872034,23.4389098 C82.3304354,23.5616771 82.3125873,23.6609903 82.2249333,23.7610365 C82.1352962,23.868412 81.8854228,23.928513 81.8854228,23.928513 L81.8374312,25.5369475 C81.8374312,25.5369475 82.5370768,25.5105617 83.1058363,25.1968638 C83.6404861,24.8959924 83.9780135,24.5141312 84.095811,24.0384539 C84.2318532,23.4810538 84.1394397,22.9397784 83.7142582,22.4032672 C83.434638,22.0452265 82.9444101,21.7886979 82.4466464,21.6267184 C81.4178025,21.2939641 80.3088405,21.343804 79.2439038,21.205645 C79.0824776,21.1810915 78.9309671,21.0663866 78.9190684,20.9326252 C78.887735,20.6845254 79.1423679,20.5672552 79.1423679,20.5672552 C79.1423679,20.5672552 79.0126717,20.185394 78.8786127,19.8141605 C78.7576422,19.5316125 78.5874903,19.1358255 78.4633468,18.9247391 C77.7391105,19.2149829 77.2734734,19.8343163 77.1917688,20.5199806" id="Fill-42" fill="#FFFFFF"></path>
                    <path d="M81.5202903,23.496812 L81.4917333,26.3787278 L80.7072101,26.0522035 L79.9345857,25.7568291 L79.9211004,23.3421619 C80.6120203,23.4213193 80.9289232,23.4286487 81.5202903,23.496812" id="Fill-44" fill="#FFFFFF"></path>
                    <path d="M78.0214278,25.0895616 C77.5962464,26.0181951 78.1289131,26.9310706 78.9840354,27.3257582 C79.4290481,27.5251175 80.0144658,27.705054 80.4880354,27.8776612 C80.9592253,28.0447712 81.7861873,28.5160509 81.8508371,28.7461938 C81.8912928,28.8898498 81.7159848,29.0261764 81.7159848,29.0261764 L81.692584,30.15307 C81.692584,30.15307 82.19947,30.0511915 82.5794363,29.7638794 C82.9268793,29.4974561 83.1906346,29.1463784 83.1846852,28.5842143 C83.1827021,27.9641479 82.8717485,27.4884706 81.9218329,26.9702828 C81.1837148,26.5726634 80.28893,26.2509032 79.5972169,25.9679888 C79.4996473,25.9262113 79.4052506,25.7488401 79.4476895,25.6308369 C79.4877485,25.5132002 79.5635038,25.4688574 79.5635038,25.4688574 L79.5539848,24.166425 C79.5539848,24.166425 79.0173519,24.2657382 78.7635122,24.3994996 C78.5283139,24.5292298 78.182854,24.7450803 78.0214278,25.0895616" id="Fill-46" fill="#FFFFFF"></path>
                    <path d="M81.3963055,28.9242613 C81.4002717,28.8297121 81.3617992,28.8168857 81.3213435,28.7567847 C81.1067696,28.5522948 80.8096979,28.4115705 80.7359257,28.3778553 C80.520162,28.2547216 80.034297,28.0920091 80.034297,28.0920091 C80.034297,28.0920091 80.0703899,31.0420882 80.1275038,32.5673341 C80.1445586,32.9154801 80.348027,33.0045322 80.7073688,33.0283527 C81.1531747,33.0466761 81.2793013,32.7952781 81.2852506,32.6435597 C81.3046852,32.154323 81.3697316,30.0353966 81.3963055,28.9242613" id="Fill-48" fill="#FFFFFF"></path>
                    <path d="M81.7269713,9.92384621 C81.8883975,10.033787 81.8883975,10.0392841 81.9387688,10.2558675 C82.0470473,10.7297125 81.9316295,11.4670491 82.0291992,11.7943063 C82.0831401,11.8961848 82.1965747,11.8936195 82.2850219,11.851842 C82.9926,11.5007643 83.4729122,10.892425 84.1876295,10.6069453 C84.5239671,10.4757492 85.4592076,10.9078167 85.2434439,11.5564676 C85.1411148,11.8591714 84.9915873,11.906446 84.7897055,12.1028736 C84.3736464,12.5030582 83.7791063,12.8794224 83.2674608,13.4031072 C82.9188278,13.753452 82.4948363,14.0044836 82.2251316,14.4072335 C82.1462034,14.5325661 82.0014354,14.7055396 82.0014354,14.7055396 C81.0074945,14.5201061 80.0083975,14.5534548 79.2318068,14.4046682 L79.2302203,13.339708 C79.2302203,13.339708 80.0202962,13.2176737 80.1650641,12.8556018 C80.1777561,12.8273837 80.1563384,12.7075482 80.0460768,12.6258255 C79.9092414,12.5349411 79.6748363,12.4374602 79.6070135,12.4110744 C80.3962962,12.5320093 80.8893004,12.6522113 81.6531992,12.9574804 C81.7103131,12.8819876 81.6758068,12.7075482 81.6159165,12.6522113 C81.5123975,12.5375064 81.4584565,12.5001265 81.1867688,12.440392 C80.7163722,12.3330164 79.4475705,12.1864286 79.4475705,12.1864286 C79.4475705,12.1864286 80.0369544,12.1838633 80.526389,12.1080042 C80.7703131,12.0709907 80.9650557,12.0317785 81.0193932,11.9562858 C81.0725409,11.8437797 80.9741781,11.6708061 80.79887,11.5062613 C80.6917814,11.3915564 80.5604987,11.2790503 80.4700684,11.1632459 C80.3538574,11.0170246 80.1610979,10.7506013 79.9552498,10.5805595 C79.7791485,10.4314064 79.323427,10.2221523 79.323427,10.2221523 C79.323427,10.2221523 79.2528278,9.64642884 79.3745916,9.41921778 C79.4713679,9.24624419 79.7093426,9.1502292 79.8362624,9.20483315 C80.4022456,9.50020753 80.9650557,9.8040107 81.7269713,9.92384621" id="Fill-50" fill="#FFFFFF"></path>
                    <path d="M79.3629308,11.0094753 C79.323665,10.9830895 79.2439435,11.0120406 79.2253021,11.0223018 C79.0706186,11.1223479 78.9730489,11.2157976 78.8116228,11.2421834 C78.4828211,11.289458 78.5284329,11.0303641 78.3039435,10.8841428 C78.1710743,10.7921589 78.0401882,10.9075968 77.9160447,10.7012745 C78.3923907,10.7111692 79.0095384,10.6693917 79.3629308,11.0094753 M84.9117072,17.3050541 C84.766146,16.603998 84.1727958,15.8875502 83.4906017,15.5654236 C81.7268127,14.7287738 79.7908886,15.0897462 77.9870405,14.5488373 C77.3798084,14.3678014 76.5294456,14.0878187 76.36207,13.4574913 C76.2970236,13.2038944 76.36207,12.6988995 76.6377241,12.6127792 C77.0954287,12.4819496 77.5991418,12.837425 78.2615046,12.9763169 C78.6807367,13.0683007 79.0924329,13.065369 79.4200447,12.9737516 C79.5667958,12.9319741 79.7821629,12.8799354 79.800011,12.8037098 C79.7821629,12.7337141 79.6147873,12.6754455 79.5303063,12.6336679 C79.3323907,12.5343547 79.1170236,12.4925772 78.8933274,12.4115875 C78.5331924,12.2851555 78.1710743,12.1235425 77.7998338,11.9351772 C78.1464835,11.8670138 78.7291249,11.8541874 79.0706186,11.8879026 C79.3510321,11.9197854 80.2045679,11.9087914 80.4552346,11.8490568 C80.5123485,11.8362304 80.6432346,11.7915211 80.5833443,11.7024691 C80.4837916,11.547819 80.3203823,11.493215 80.2073443,11.349559 C79.9554878,11.0358611 79.7397241,10.7137345 79.3403232,10.5730102 C78.182973,10.1592662 76.8887873,10.0573877 75.7369899,10.6092907 C74.222281,11.3359996 73.6979435,13.0492443 74.3749814,14.4304677 C74.9663485,15.6291893 76.1336143,16.4185645 77.4888802,16.7923633 C78.1679013,16.9814615 78.8512852,17.0250714 79.5537072,17.0595195 C80.4139857,17.0987318 81.1925595,17.1196205 82.0151586,17.3186134 C82.196416,17.3548939 82.3836228,17.4516418 82.4740532,17.6088572 C82.6945764,17.9936502 82.4966608,18.4117918 82.0635468,18.5272297 C82.052838,19.1967694 81.9905679,20.5362152 81.9905679,20.5362152 C81.9905679,20.5362152 85.5082304,20.2243497 84.9117072,17.3050541" id="Fill-52" fill="#FFFFFF"></path>
                    <path d="M36.3821646,29.2407809 C34.9471772,29.2407809 33.5812025,28.9607983 32.3477004,28.447741 L36.2219283,22.9730539 C36.2671435,22.9151517 36.3242574,22.8887659 36.3829578,22.8913312 C36.4432447,22.8887659 36.5003586,22.9151517 36.544384,22.9730539 L40.4194051,28.447741 C39.1851097,28.9607983 37.8199283,29.2407809 36.3821646,29.2407809 Z M35.6654641,21.2209634 L30.0548143,28.9695935 C31.8693713,30.0755983 34.0448565,30.7213175 36.3821646,30.7213175 C38.7226456,30.7213175 40.8949578,30.0755983 42.7114979,28.9695935 L37.1008481,21.2209634 C36.7097764,20.7189003 36.0791435,20.6818868 35.6654641,21.2209634 Z M47.1651941,16.3249315 L47.1651941,16.3267639 L47.1671772,16.3267639 L47.1651941,16.3249315 Z M39.8101899,18.814725 C39.7138101,18.5955762 39.7451435,18.4273668 40.1675485,18.3962169 L46.0185527,17.8989178 C46.2045696,18.5999739 46.3021392,19.3274157 46.3021392,20.0779452 C46.3021392,22.3559193 45.4014051,24.4411305 43.9065274,26.0440679 L39.8101899,18.814725 Z M47.9013291,20.0779452 C47.9013291,18.7582887 47.6435232,17.4906708 47.1651941,16.3267639 L39.4373629,17.0175588 C37.9873038,17.200427 37.8143755,18.5010271 38.2030675,19.2856382 L43.4960211,28.4660645 L43.4932447,28.4506728 C46.1740295,26.5043535 47.9013291,23.4754835 47.9013291,20.0779452 Z M34.0270084,14.1195183 L28.845903,14.1224501 C30.0861477,12.7782401 31.7424515,11.7733809 33.6291941,11.2713177 C33.0445696,12.1735655 33.5169494,13.3429696 34.0722236,13.8996367 C34.1705865,13.991254 34.1233882,14.0956978 34.0270084,14.1195183 Z M38.6980549,13.8996367 C39.2473797,13.3429696 39.7257089,12.1735655 39.1391013,11.2713177 C41.024654,11.7733809 42.6781814,12.7782401 43.9212025,14.1224501 L38.7404937,14.1195183 C38.6437173,14.0956978 38.5957257,13.991254 38.6980549,13.8996367 Z M35.8526709,14.4079298 C35.8780549,13.7948264 35.7721561,13.5994982 35.2295738,12.947549 C34.6350338,12.2197407 35.0447468,10.8168956 36.3841477,10.7912428 C37.7195823,10.8168956 38.1320717,12.2197407 37.5367384,12.947549 C36.9905865,13.5994982 36.891827,13.7948264 36.9136414,14.4079298 C36.9421983,14.9198876 37.4550338,15.5472833 38.6242827,15.5762344 L46.8256835,15.5762344 C44.9881224,11.9481868 41.0020464,9.43530579 36.3821646,9.43530579 C31.7630759,9.43530579 27.7789831,11.9481868 25.9418186,15.5762344 L34.1400464,15.5762344 C35.3144515,15.5472833 35.8268903,14.9198876 35.8526709,14.4079298 Z M30.0516414,28.9743576 L30.0548143,28.9695935 L30.0516414,28.9688606 L30.0516414,28.9743576 Z M42.7146709,28.9743576 L42.7146709,28.9688606 L42.7114979,28.9695935 L42.7146709,28.9743576 Z M25.599135,16.3267639 L25.6011181,16.3267639 L25.6019114,16.3249315 L25.599135,16.3267639 Z M28.8589916,26.0440679 C27.3657004,24.4411305 26.464173,22.3559193 26.464173,20.0779452 C26.464173,19.3274157 26.564519,18.5999739 26.7465696,17.8989178 L32.6019367,18.3962169 C33.021962,18.4273668 33.0556751,18.5955762 32.9581055,18.814725 L28.8589916,26.0440679 Z M34.5632447,19.2856382 C34.9491603,18.5010271 34.7798017,17.200427 33.3301392,17.0175588 L25.6011181,16.3267639 C25.1247722,17.4906708 24.8657764,18.7582887 24.8657764,20.0779452 C24.8657764,23.4754835 26.5902996,26.5043535 29.2762405,28.4506728 L29.2710844,28.4660645 L34.5632447,19.2856382 Z" id="Fill-54" fill="#FFFFFF"></path>
                    <path d="M79.2644886,30.0120159 C79.0705392,30.1985488 78.7548262,30.58041 78.6925561,31.1788546 C78.6413916,31.7171983 78.7762439,31.8689166 78.9269612,32.1598934 C79.0459485,32.3955332 79.3235857,32.3845391 79.4286911,32.1598934 C79.5056363,31.9817892 79.3914084,31.8143127 79.4683536,31.4188921 C79.5123789,31.126816 79.7646321,30.9696006 79.7646321,30.9696006 L79.7396447,29.6565405 C79.7396447,29.6565405 79.5183283,29.7639161 79.2644886,30.0120159" id="Fill-56" fill="#FFFFFF"></path>
                </g>
            </g>
        </g>
    </g>
</svg>