<?xml version="1.0" encoding="UTF-8" standalone="no"?>
<svg width="48px" height="52px" viewBox="0 0 48 52" version="1.1" xmlns="http://www.w3.org/2000/svg" xmlns:xlink="http://www.w3.org/1999/xlink">
    <!-- Generator: Sketch 49.1 (51147) - http://www.bohemiancoding.com/sketch -->
    <title>Note</title>
    <desc>Created with Sketch.</desc>
    <defs>
        <path d="M39.9398069,42.5 L45.7049354,48.2651285 C46.0911619,48.651355 46.0966262,49.3014428 45.6990345,49.6990345 C45.2986708,50.0993981 44.6594612,50.0992681 44.2651285,49.7049354 L38.5,43.9398069 L32.7348715,49.7049354 C32.348645,50.0911619 31.6985572,50.0966262 31.3009655,49.6990345 C30.9006019,49.2986708 30.9007319,48.6594612 31.2950646,48.2651285 L37.0601931,42.5 L31.2950646,36.7348715 C30.9088381,36.348645 30.9033738,35.6985572 31.3009655,35.3009655 C31.7013292,34.9006019 32.3405388,34.9007319 32.7348715,35.2950646 L38.5,41.0601931 L44.2651285,35.2950646 C44.651355,34.9088381 45.3014428,34.9033738 45.6990345,35.3009655 C46.0993981,35.7013292 46.0992681,36.3405388 45.7049354,36.7348715 L39.9398069,42.5 Z" id="path-1"></path>
    </defs>
    <g id="Screens" stroke="none" stroke-width="1" fill="none" fill-rule="evenodd">
        <g id="@Screens-/-Mobile-/-Account-/-My-Medications-/4.0.1-No-medications" transform="translate(-137.000000, -166.000000)">
            <g id="Note" transform="translate(137.000000, 166.000000)">
                <path d="M1,43.5857864 L4.00315092,46.5889374 L8.04223314,42.5857722 L12.0035279,46.5829301 L16.0044531,42.5857863 L20.0019798,46.5870983 L24.0219784,42.5857826 L28.0063989,46.5888944 L32.063781,42.585754 L36.0048397,46.5809467 L39,43.5857864 L39,2.00492334 C39,1.4479318 38.5541865,1 38.0027084,1 L1.99729162,1 C1.44787241,1 1,1.44977277 1,2.00492334 L1,43.5857864 Z" id="Path-37" stroke="#000000" stroke-width="2"></path>
                <rect id="Rectangle-135" stroke="#000000" stroke-width="2" x="7" y="11" width="26" height="1"></rect>
                <rect id="Rectangle-136" stroke="#000000" stroke-width="2" x="7" y="17" width="26" height="1"></rect>
                <rect id="Rectangle-137" stroke="#000000" stroke-width="2" x="7" y="23" width="26" height="1"></rect>
                <rect id="Rectangle-138" stroke="#000000" stroke-width="2" x="7" y="29" width="26" height="1"></rect>
                <g id="Combined-Shape">
                    <use fill="#C1272D" fill-rule="evenodd" xlink:href="#path-1"></use>
                    <path stroke="#FFFFFF" stroke-width="2" d="M41.3540205,42.5 L46.4120422,47.5580218 C47.191659,48.3376385 47.1913901,49.6208924 46.4061413,50.4061413 C45.6170892,51.1951933 44.3447148,51.1987352 43.5580218,50.4120422 L38.5,45.3540205 L33.4419782,50.4120422 C32.6623615,51.191659 31.3791076,51.1913901 30.5938587,50.4061413 C29.8048067,49.6170892 29.8012648,48.3447148 30.5879578,47.5580218 L35.6459795,42.5 L30.5879578,37.4419782 C29.808341,36.6623615 29.8086099,35.3791076 30.5938587,34.5938587 C31.3829108,33.8048067 32.6552852,33.8012648 33.4419782,34.5879578 L38.5,39.6459795 L43.5580218,34.5879578 C44.3376385,33.808341 45.6208924,33.8086099 46.4061413,34.5938587 C47.1951933,35.3829108 47.1987352,36.6552852 46.4120422,37.4419782 L41.3540205,42.5 Z"></path>
                </g>
            </g>
        </g>
    </g>
</svg>