<?xml version="1.0" encoding="utf-8"?>
<!-- Generator: Adobe Illustrator 22.0.0, SVG Export Plug-In . SVG Version: 6.00 Build 0)  -->
<svg version="1.1" id="Layer_1" xmlns="http://www.w3.org/2000/svg" xmlns:xlink="http://www.w3.org/1999/xlink" x="0px" y="0px"
	 viewBox="0 0 44 44" style="enable-background:new 0 0 44 44;" xml:space="preserve">
<style type="text/css">
	.st0{fill:#1866A3;}
</style>
<g id="Combined-Shape">
	<path id="path-1_1_" class="st0" d="M1.4,26.2c0.1,0.3,0.1,0.6,0.2,0.9c0.1,0.3-0.1,0.5-0.4,0.6c0,0-0.1,0-0.1,0
		c-0.2,0-0.4-0.1-0.5-0.4c-0.1-0.3-0.1-0.6-0.2-0.8c0,0,0-0.1,0-0.1c-2.1-10.6,3.9-21.3,14-25c0.3-0.1,0.5,0,0.6,0.3
		c0.1,0.3,0,0.5-0.3,0.6C5.1,5.8-0.6,16,1.4,26.2C1.4,26.1,1.4,26.1,1.4,26.2z M43.6,17.7c0.2,1.2,0.4,2.4,0.4,3.6
		c0,0.3-0.2,0.5-0.5,0.5h0c-0.3,0-0.5-0.2-0.5-0.5c0-1.1-0.2-2.3-0.4-3.4c0,0,0-0.1,0-0.1c-1.1-5.5-4.3-10.2-9-13.4
		C29,1.4,23.3,0.3,17.8,1.4c-0.3,0.1-0.5-0.1-0.6-0.4c-0.1-0.3,0.1-0.5,0.4-0.6c5.8-1.2,11.6,0,16.5,3.2c4.9,3.2,8.2,8.2,9.4,13.9
		C43.6,17.6,43.6,17.6,43.6,17.7z M19,39.4c0.2,0.1,0.3,0.4,0.1,0.7c-0.7,1.1-1.5,2.1-2.3,3.1c-0.1,0.1-0.2,0.2-0.4,0.2
		c-0.1,0-0.2,0-0.3-0.1c-0.2-0.2-0.2-0.5,0-0.7c0.8-0.9,1.6-1.9,2.2-3C18.4,39.3,18.7,39.2,19,39.4z M19.4,38.6
		c-0.2-0.1-0.3-0.4-0.2-0.7c2.6-4.8,3.4-10.5,2.3-15.8c-0.1-0.3,0.1-0.5,0.4-0.6c0.3-0.1,0.5,0.1,0.6,0.4c1.1,5.6,0.3,11.4-2.4,16.5
		c-0.1,0.2-0.3,0.3-0.4,0.3C19.6,38.6,19.5,38.6,19.4,38.6z M24.4,33.2c0.3,0.1,0.4,0.3,0.3,0.6c-1,3.6-2.6,6.9-4.9,9.9
		c-0.1,0.1-0.2,0.2-0.4,0.2c-0.1,0-0.2,0-0.3-0.1c-0.2-0.2-0.3-0.5-0.1-0.7c2.2-2.8,3.8-6.1,4.7-9.5C23.9,33.3,24.1,33.1,24.4,33.2z
		 M19.8,22.4c1.5,7.1-0.7,14.5-5.8,19.7c-0.1,0.1-0.2,0.1-0.4,0.1c-0.1,0-0.2,0-0.3-0.1c-0.2-0.2-0.2-0.5,0-0.7
		c4.9-5,6.9-12,5.6-18.9c-0.3-1.7,0.8-3.4,2.5-3.8c0.8-0.2,1.7,0,2.4,0.5c0.7,0.5,1.2,1.2,1.4,2c0.7,3.3,0.7,6.7,0.2,10
		c0,0.3-0.3,0.5-0.6,0.4c-0.3,0-0.4-0.3-0.4-0.6c0.5-3.2,0.5-6.4-0.2-9.6c-0.1-0.6-0.4-1.1-0.9-1.4c-0.5-0.3-1.1-0.4-1.7-0.3
		C20.4,20.1,19.6,21.2,19.8,22.4z M25.4,38.7c0.2,0.1,0.4,0.4,0.2,0.6c-0.7,1.5-1.6,3-2.5,4.4C23,43.9,22.8,44,22.7,44
		c-0.1,0-0.2,0-0.3-0.1c-0.2-0.2-0.3-0.5-0.1-0.7c0.9-1.4,1.7-2.8,2.4-4.3C24.8,38.7,25.1,38.6,25.4,38.7z M25.7,38
		c-0.3-0.1-0.4-0.4-0.3-0.6c2-5.2,2.5-10.8,1.4-16.3c-0.3-1.3-1-2.4-2.1-3.1c-1.1-0.7-2.4-1-3.7-0.7c-0.3,0.1-0.5-0.1-0.6-0.4
		c-0.1-0.3,0.1-0.5,0.4-0.6c1.5-0.3,3.1,0,4.4,0.9c1.3,0.9,2.2,2.2,2.5,3.7c1.1,5.7,0.6,11.5-1.4,16.8C26.2,37.9,26,38,25.8,38
		C25.8,38,25.7,38,25.7,38z M13.9,37.2c0.2,0.2,0.3,0.5,0.1,0.7c-0.8,1.1-1.6,2.1-2.6,3c-0.1,0.1-0.2,0.1-0.3,0.1
		c-0.1,0-0.3-0.1-0.4-0.2c-0.2-0.2-0.2-0.5,0-0.7c0.9-0.9,1.8-1.8,2.5-2.8C13.4,37.1,13.7,37.1,13.9,37.2z M14.3,36.6
		c-0.2-0.1-0.3-0.4-0.2-0.7c2.2-3.9,3-8.4,2.1-12.8c-0.5-2.4,0.5-4.8,2.6-6.1c0.2-0.1,0.5-0.1,0.7,0.1c0.1,0.2,0.1,0.5-0.1,0.7
		C17.6,19,16.8,21,17.2,23c0.9,4.6,0.2,9.4-2.2,13.5c-0.1,0.2-0.3,0.2-0.4,0.2C14.5,36.7,14.4,36.7,14.3,36.6z M30.5,20.7
		c1.5,7.8,0.1,15.8-3.9,22.7c-0.1,0.2-0.3,0.2-0.4,0.2c-0.1,0-0.2,0-0.2-0.1c-0.2-0.1-0.3-0.4-0.2-0.7c4-6.7,5.3-14.7,3.7-22.4
		l0-0.2c-0.4-1.9-1.6-3.5-3.2-4.6c-1.7-1.1-3.7-1.5-5.7-1.1c-4,0.8-6.6,4.6-6,8.6l0.1,0.3c1.2,5.9-0.9,12-5.4,15.9
		c-0.2,0.2-0.5,0.2-0.7,0c-0.2-0.2-0.2-0.5,0-0.7c4.2-3.6,6.1-9.2,5.2-14.6l-0.1-0.3c-0.9-4.6,2.1-9.2,6.7-10.1
		c2.2-0.5,4.5,0,6.4,1.3c1.9,1.3,3.2,3.2,3.7,5.4L30.5,20.7L30.5,20.7z M33,19.8c1.6,7.7,0.6,15.5-2.9,22.5
		c-0.1,0.2-0.3,0.3-0.4,0.3c-0.1,0-0.1,0-0.2,0c-0.2-0.1-0.3-0.4-0.2-0.7c3.3-6.8,4.3-14.4,2.8-21.9c-0.5-2.7-2.1-5-4.4-6.5
		s-5-2.1-7.7-1.5c-2.7,0.5-5,2.1-6.5,4.4c-1.5,2.3-2.1,5-1.5,7.7c1,5.1-0.8,10.3-4.8,13.6c-0.2,0.2-0.5,0.1-0.7-0.1
		c-0.2-0.2-0.1-0.5,0.1-0.7c3.7-3.1,5.5-7.9,4.5-12.6c-0.6-2.9,0-5.9,1.7-8.5c1.7-2.5,4.2-4.2,7.2-4.8c2.9-0.6,5.9,0,8.5,1.7
		C30.7,14.3,32.4,16.8,33,19.8z M35.7,30.6c0.3,0,0.5,0.3,0.4,0.5c-0.4,3.2-1.1,6.3-2.3,9.3c-0.1,0.2-0.3,0.3-0.5,0.3
		c-0.1,0-0.1,0-0.2,0C33,40.6,32.9,40.3,33,40c1.1-2.9,1.9-6,2.2-9.1C35.2,30.7,35.5,30.5,35.7,30.6z M32.6,13
		c1.5,1.8,2.6,4,3.1,6.3c0.7,3.3,0.9,6.7,0.7,10.1c0,0.3-0.2,0.5-0.5,0.5c0,0,0,0,0,0c-0.3,0-0.5-0.3-0.5-0.5c0.2-3.3,0-6.6-0.7-9.8
		c-0.4-2.2-1.4-4.2-2.8-5.8c-0.2-0.2-0.1-0.5,0.1-0.7C32.1,12.7,32.4,12.8,32.6,13z M9.5,25.7c0.4,3.8-1.2,7.5-4.2,9.9
		c-0.1,0.1-0.2,0.1-0.3,0.1c-0.1,0-0.3-0.1-0.4-0.2c-0.2-0.2-0.1-0.5,0.1-0.7c2.7-2.2,4.2-5.6,3.8-9c0-0.3,0.2-0.5,0.4-0.5
		C9.2,25.2,9.4,25.4,9.5,25.7z M19.4,9.3c-6.6,1.3-11,7.4-10.3,14c0,0.3-0.2,0.5-0.4,0.5c0,0,0,0-0.1,0c-0.2,0-0.5-0.2-0.5-0.4
		c-0.8-7.2,4-13.7,11.1-15.1c4.2-0.8,8.5,0.3,11.8,3c0.2,0.2,0.2,0.5,0.1,0.7c-0.2,0.2-0.5,0.2-0.7,0.1C27.3,9.5,23.4,8.5,19.4,9.3z
		 M38.5,23.3c0.3,0,0.5,0.2,0.5,0.5c0.3,4.6-0.1,9.1-1.3,13.5c-0.1,0.2-0.3,0.4-0.5,0.4c0,0-0.1,0-0.1,0c-0.3-0.1-0.4-0.3-0.3-0.6
		c1.1-4.3,1.6-8.8,1.2-13.2C38,23.6,38.2,23.3,38.5,23.3z M6.7,25.1c0.6,3.1-0.5,6.2-2.9,8.2c-0.1,0.1-0.2,0.1-0.3,0.1
		c-0.1,0-0.3-0.1-0.4-0.2c-0.2-0.2-0.1-0.5,0.1-0.7c2.1-1.8,3.1-4.6,2.5-7.3C4.1,17.3,8.4,9.4,16,6.5c0.3-0.1,0.5,0,0.6,0.3
		c0.1,0.3,0,0.5-0.3,0.6C9.2,10.2,5.1,17.6,6.7,25.1z M37.3,18.9C35.6,10.5,27.4,5,18.9,6.7c-0.3,0.1-0.5-0.1-0.6-0.4
		c-0.1-0.3,0.1-0.5,0.4-0.6c9-1.8,17.8,4,19.6,13c0.2,0.9,0.3,1.7,0.4,2.6c0,0.3-0.2,0.5-0.4,0.6c0,0,0,0-0.1,0
		c-0.2,0-0.5-0.2-0.5-0.4C37.6,20.6,37.5,19.7,37.3,18.9z M41.3,25.4c0.3,0,0.5,0.2,0.5,0.5c0,2.1-0.1,4.2-0.3,6.3
		c0,0.2-0.2,0.4-0.5,0.4c0,0,0,0-0.1,0c-0.3,0-0.5-0.3-0.4-0.5c0.3-2,0.4-4.1,0.3-6.2C40.8,25.6,41,25.4,41.3,25.4z M41.1,23.6
		c-0.3,0-0.5-0.2-0.5-0.4c-0.1-1.6-0.4-3.2-0.7-4.7c-0.5-2.4-1.4-4.6-2.8-6.6c-0.2-0.2-0.1-0.5,0.1-0.7c0.2-0.2,0.5-0.1,0.7,0.1
		c1.4,2.1,2.4,4.5,2.9,7c0.3,1.6,0.6,3.2,0.7,4.8C41.7,23.3,41.5,23.5,41.1,23.6C41.2,23.6,41.2,23.6,41.1,23.6z M4,25.6
		c0.4,1.8-0.2,3.8-1.5,5.2C2.5,30.9,2.3,31,2.2,31c-0.1,0-0.2,0-0.3-0.1c-0.2-0.2-0.2-0.5,0-0.7c1.1-1.2,1.5-2.8,1.2-4.3
		c-0.6-2.9-0.5-5.8,0.2-8.6c0.1-0.3,0.3-0.4,0.6-0.4c0.3,0.1,0.4,0.3,0.4,0.6C3.5,20.2,3.5,22.9,4,25.6z M18.2,3.1
		c6.6-1.3,13.4,0.8,18,5.8c0.2,0.2,0.2,0.5,0,0.7s-0.5,0.2-0.7,0C31.1,4.8,24.7,2.8,18.4,4C12.5,5.2,7.5,9.2,5.2,14.7
		C5.1,14.9,4.9,15,4.7,15c-0.1,0-0.1,0-0.2,0c-0.2-0.1-0.4-0.4-0.3-0.6C6.8,8.5,12,4.3,18.2,3.1z"/>
</g>
</svg>
