<?xml version="1.0" encoding="UTF-8" standalone="no"?>
<svg width="18px" height="18px" viewBox="0 0 18 18" version="1.1" xmlns="http://www.w3.org/2000/svg" xmlns:xlink="http://www.w3.org/1999/xlink">
    <!-- Generator: Sketch 49.3 (51167) - http://www.bohemiancoding.com/sketch -->
    <title>Icons / Error</title>
    <desc>Created with Sketch.</desc>
    <defs>
        <path d="M17.9999182,9.00004091 C17.9999182,13.9704955 13.9703727,18.0000409 8.99991818,18.0000409 C4.02946364,18.0000409 -8.18181825e-05,13.9704955 -8.18181825e-05,9.00004091 C-8.18181825e-05,4.02958636 4.02946364,4.09090909e-05 8.99991818,4.09090909e-05 C13.9703727,4.09090909e-05 17.9999182,4.02958636 17.9999182,9.00004091 Z M16.5,9 C16.5,4.86428571 13.1357143,1.5 9,1.5 C4.86428571,1.5 1.5,4.86428571 1.5,9 C1.5,13.1357143 4.86428571,16.5 9,16.5 C13.1357143,16.5 16.5,13.1357143 16.5,9 Z M9.9481982,10.5928451 L8.33648649,10.5928451 L8.25,3.60004091 L10.05,3.60004091 L9.9481982,10.5928451 Z M8.25,13.5167981 C8.25,13.2605529 8.32987965,13.0434079 8.49031591,12.8660611 C8.64939827,12.6887143 8.8680519,12.6000409 9.1449229,12.6000409 C9.42044002,12.6000409 9.64044754,12.6887143 9.80494547,12.8660611 C9.96808951,13.0434079 10.05,13.2605529 10.05,13.5167981 C10.05,13.7660611 9.96808951,13.9755258 9.80494547,14.1451922 C9.64044754,14.3148586 9.42044002,14.4000409 9.1449229,14.4000409 C8.8680519,14.4000409 8.64939827,14.3148586 8.49031591,14.1451922 C8.32987965,13.9755258 8.25,13.7660611 8.25,13.5167981 Z" id="path-1"></path>
    </defs>
    <g id="Styles" stroke="none" stroke-width="1" fill="none" fill-rule="evenodd">
        <g id="Notifications-&amp;-Alerts" transform="translate(-1509.000000, -539.000000)">
            <g id="!UI-Kit-/-Molecule-/-Notifications-/-2-Header-+-Description-Copy-2" transform="translate(1494.000000, 527.000000)">
                <g id="Icons-/-Error" transform="translate(15.000000, 12.000000)">
                    <mask id="mask-2" fill="white">
                        <use xlink:href="#path-1"></use>
                    </mask>
                    <use id="Combined-Shape" fill="#C1272D" xlink:href="#path-1"></use>
                    <g id="!UI-Kit-/-🎨-Color-/-Red" mask="url(#mask-2)" fill="#C1272D">
                        <rect id="Rectangle-2" x="0" y="0" width="18" height="18"></rect>
                    </g>
                </g>
            </g>
        </g>
    </g>
</svg>