<?xml version="1.0" encoding="UTF-8" standalone="no"?>
<svg width="30px" height="30px" viewBox="0 0 30 30" version="1.1" xmlns="http://www.w3.org/2000/svg" xmlns:xlink="http://www.w3.org/1999/xlink">
    <!-- Generator: Sketch 48.2 (47327) - http://www.bohemiancoding.com/sketch -->
    <title>Icons / Success</title>
    <desc>Created with Sketch.</desc>
    <defs>
        <path d="M29.9998636,15.0000682 C29.9998636,23.2841591 23.2839545,30.0000682 14.9998636,30.0000682 C6.71577273,30.0000682 -0.000136363637,23.2841591 -0.000136363637,15.0000682 C-0.000136363637,6.71597727 6.71577273,6.81818182e-05 14.9998636,6.81818182e-05 C23.2839545,6.81818182e-05 29.9998636,6.71597727 29.9998636,15.0000682 Z M27.5,15 C27.5,8.10714286 21.8928571,2.5 15,2.5 C8.10714286,2.5 2.5,8.10714286 2.5,15 C2.5,21.8928571 8.10714286,27.5 15,27.5 C21.8928571,27.5 27.5,21.8928571 27.5,15 Z M14.4898159,21.529468 C13.178042,23.0008588 12.4390162,23.7410241 12.2727385,23.749964 C12.1064608,23.7589038 11.2237979,23.0187385 9.62474987,21.529468 L6.41203053,18.4337827 C5.74150459,17.7693401 5.74150459,16.6871418 6.41203053,16.0239388 C7.08255648,15.3582567 8.1746631,15.3594963 8.84268709,16.0226992 L12.0579084,19.1183845 L21.1559887,9.24899573 C21.8265147,8.58331356 22.9186213,8.58455319 23.5878963,9.2477561 C23.9231592,9.57997737 24.0907907,10.0166376 24.0907907,10.4532978 C24.0907907,10.8899581 23.9231592,11.3266183 23.5878963,11.6588396 L14.4898159,21.529468 Z" id="path-1"></path>
    </defs>
    <g id="Symbols" stroke="none" stroke-width="1" fill="none" fill-rule="evenodd">
        <g id="Icons-/-Success">
            <mask id="mask-2" fill="white">
                <use xlink:href="#path-1"></use>
            </mask>
            <use id="Combined-Shape" fill="#3DA148" xlink:href="#path-1"></use>
            <g id="!UI-Kit-/-🎨-Color-/-Green" mask="url(#mask-2)" fill="#3DA148">
                <rect id="Rectangle-2-Copy" x="0" y="0" width="30" height="30"></rect>
            </g>
        </g>
    </g>
</svg>